<svg width="80" height="28" viewBox="0 0 80 28" fill="none" xmlns="http://www.w3.org/2000/svg">
<path d="M0.61297 13.5185V3.04372H6.6418C7.80567 3.04372 8.58158 3.35667 8.96954 3.98257C9.36266 4.60848 9.55923 5.3637 9.55923 6.24823C9.55923 7.11726 9.35232 7.8492 8.9385 8.44406C8.52985 9.03376 7.72808 9.3286 6.53317 9.3286H3.25883V13.5185H0.61297ZM6.88233 13.5185L4.65547 8.63804L7.27805 8.52941L9.74545 13.5185H6.88233ZM3.25883 7.71471H5.76502C6.2047 7.71471 6.50472 7.59056 6.66508 7.34227C6.83061 7.08881 6.91337 6.73447 6.91337 6.27927C6.91337 5.8189 6.83061 5.46456 6.66508 5.21627C6.49955 4.96281 6.19953 4.83608 5.76502 4.83608H3.25883V7.71471ZM10.3992 13.5185L13.7356 3.0282H17.4677L20.8119 13.5185H18.0962L17.3901 10.9658H13.8287L13.1148 13.5185H10.3992ZM14.2632 9.22773H16.9634L15.621 4.57227H15.5978L14.2632 9.22773ZM26.1966 13.6039C24.7068 13.6039 23.5869 13.3427 22.8369 12.8202C22.0868 12.2926 21.7118 11.4727 21.7118 10.3606V8.80874H24.3422V10.058C24.3422 10.6528 24.4766 11.0977 24.7456 11.3925C25.0146 11.6874 25.4957 11.8348 26.1888 11.8348C26.882 11.8348 27.3656 11.6925 27.6398 11.408C27.9191 11.1235 28.0588 10.6813 28.0588 10.0812V3.04372H30.6891V10.4614C30.6891 11.5063 30.3167 12.2926 29.5718 12.8202C28.8269 13.3427 27.7019 13.6039 26.1966 13.6039ZM31.1305 13.5185L34.467 3.0282H38.1991L41.5433 13.5185H38.8276L38.1215 10.9658H34.5601L33.8462 13.5185H31.1305ZM34.9946 9.22773H37.6947L36.3524 4.57227H36.3291L34.9946 9.22773ZM43.0761 13.5185L41.1828 3.04372H44.0227L45.2331 11.5943H45.2641L46.9168 3.04372H50.3774L52.0378 11.5943H52.0611L53.3258 3.04372H56.1734L54.2181 13.5185H50.1912L48.6626 4.83608H48.6393L47.103 13.5185H43.0761ZM55.7112 13.5185L59.0476 3.0282H62.7797L66.1239 13.5185H63.4082L62.7021 10.9658H59.1407L58.4268 13.5185H55.7112ZM59.5752 9.22773H62.2754L60.933 4.57227H60.9098L59.5752 9.22773ZM67.111 13.5185V3.04372H69.7569V11.7339H74.0088V13.5185H67.111ZM75.5763 13.5185V3.04372H78.2067V13.5185H75.5763Z" fill="#ECECED"/>
<path d="M0.639372 24.3572V19.7222H2.06911C2.57894 19.7222 2.96464 19.833 3.22621 20.0547C3.49221 20.2764 3.62521 20.6067 3.62521 21.0456C3.62521 21.48 3.49221 21.8125 3.22621 22.0431C2.96021 22.2736 2.57451 22.3889 2.06911 22.3889H1.31102V24.3572H0.639372ZM1.31102 21.7904H2.00261C2.29965 21.7904 2.53239 21.7327 2.70086 21.6175C2.86933 21.4978 2.95356 21.3093 2.95356 21.0522C2.95356 20.7995 2.87154 20.6155 2.70751 20.5003C2.54791 20.385 2.31295 20.3274 2.00261 20.3274H1.31102V21.7904ZM8.49724 24.3572V19.7222H9.92698C10.2905 19.7222 10.5853 19.7754 10.8114 19.8818C11.042 19.9882 11.2104 20.1412 11.3168 20.3407C11.4277 20.5357 11.4831 20.7685 11.4831 21.0389C11.4831 21.4379 11.3678 21.7505 11.1373 21.9766C10.9112 22.2027 10.5831 22.3334 10.1531 22.3689C10.0777 22.3733 9.99126 22.3756 9.89373 22.3756C9.7962 22.3756 9.70531 22.3756 9.62108 22.3756H9.17553V24.3572H8.49724ZM11.0641 24.3572L9.87378 22.2958L10.5654 22.2093L11.8422 24.3572H11.0641ZM9.17553 21.7771H9.86048C10.0467 21.7771 10.2085 21.7549 10.3459 21.7106C10.4878 21.6618 10.6008 21.5842 10.6851 21.4778C10.7693 21.3714 10.8114 21.2273 10.8114 21.0456C10.8114 20.8638 10.7693 20.7219 10.6851 20.62C10.6008 20.5136 10.4878 20.4382 10.3459 20.3939C10.2041 20.3495 10.0422 20.3274 9.86048 20.3274H9.17553V21.7771ZM18.525 24.4437C18.0949 24.4437 17.7159 24.3439 17.3878 24.1444C17.0642 23.9449 16.8115 23.6656 16.6297 23.3065C16.448 22.943 16.3571 22.5218 16.3571 22.0431C16.3571 21.5598 16.448 21.1387 16.6297 20.7796C16.8115 20.416 17.0642 20.1345 17.3878 19.935C17.7159 19.7355 18.0949 19.6358 18.525 19.6358C18.9639 19.6358 19.3473 19.7355 19.6754 19.935C20.0035 20.1345 20.2584 20.416 20.4402 20.7796C20.6219 21.1387 20.7128 21.5598 20.7128 22.0431C20.7128 22.5218 20.6197 22.943 20.4335 23.3065C20.2517 23.6656 19.9968 23.9449 19.6688 24.1444C19.3407 24.3439 18.9594 24.4437 18.525 24.4437ZM18.525 23.7986C18.8353 23.7986 19.1013 23.7277 19.323 23.5858C19.5446 23.4395 19.7175 23.2356 19.8417 22.974C19.9658 22.708 20.0279 22.3977 20.0279 22.0431C20.0279 21.684 19.9658 21.3736 19.8417 21.1121C19.7175 20.8461 19.5446 20.6421 19.323 20.5003C19.1013 20.354 18.8353 20.2808 18.525 20.2808C18.2235 20.2808 17.9597 20.3517 17.7336 20.4936C17.512 20.6355 17.3391 20.8394 17.2149 21.1054C17.0952 21.367 17.0354 21.6795 17.0354 22.0431C17.0354 22.4021 17.0952 22.7147 17.2149 22.9807C17.3391 23.2423 17.512 23.444 17.7336 23.5858C17.9597 23.7277 18.2235 23.7986 18.525 23.7986ZM25.6806 24.3572V19.7222H26.984C27.7466 19.7222 28.3362 19.9284 28.7529 20.3407C29.1741 20.7485 29.3847 21.3271 29.3847 22.0763C29.3847 22.8122 29.1763 23.3775 28.7596 23.772C28.3473 24.1622 27.7532 24.3572 26.9774 24.3572H25.6806ZM26.3589 23.7321H26.9175C27.2944 23.7321 27.6158 23.6789 27.8818 23.5725C28.1478 23.4661 28.3495 23.2888 28.4869 23.0405C28.6288 22.7923 28.6997 22.462 28.6997 22.0497C28.6997 21.6418 28.631 21.3138 28.4936 21.0655C28.3561 20.8128 28.1589 20.631 27.9017 20.5202C27.6446 20.4049 27.3365 20.3473 26.9774 20.3473H26.3589V23.7321ZM36.0261 24.4437C35.4675 24.4437 35.0396 24.2952 34.7426 23.9981C34.45 23.7011 34.3037 23.2622 34.3037 22.6814V19.7222H34.982V22.6016C34.982 22.8676 35.0153 23.0915 35.0818 23.2733C35.1483 23.4551 35.2569 23.5925 35.4076 23.6856C35.5628 23.7787 35.7689 23.8252 36.0261 23.8252C36.2832 23.8252 36.4893 23.7787 36.6445 23.6856C36.8041 23.5881 36.9171 23.4506 36.9836 23.2733C37.0501 23.0915 37.0834 22.8676 37.0834 22.6016V19.7222H37.755V22.6482C37.755 23.2378 37.6087 23.6856 37.3161 23.9915C37.0235 24.293 36.5935 24.4437 36.0261 24.4437ZM44.8456 24.4437C44.4155 24.4437 44.0365 24.3439 43.7084 24.1444C43.3848 23.9449 43.1321 23.6634 42.9503 23.2999C42.7686 22.9364 42.6777 22.5152 42.6777 22.0364C42.6777 21.5576 42.7686 21.1387 42.9503 20.7796C43.1321 20.416 43.3848 20.1345 43.7084 19.935C44.0365 19.7355 44.4155 19.6358 44.8456 19.6358C45.3199 19.6358 45.73 19.7532 46.0758 19.9882C46.426 20.2232 46.6765 20.549 46.8273 20.9658L46.1955 21.1985C46.0847 20.9103 45.914 20.6865 45.6835 20.5269C45.4529 20.3628 45.1736 20.2808 44.8456 20.2808C44.5441 20.2808 44.2803 20.354 44.0542 20.5003C43.8326 20.6421 43.6597 20.8438 43.5355 21.1054C43.4158 21.3625 43.356 21.6729 43.356 22.0364C43.356 22.3999 43.4158 22.7125 43.5355 22.974C43.6597 23.2356 43.8326 23.4395 44.0542 23.5858C44.2803 23.7277 44.5441 23.7986 44.8456 23.7986C45.1736 23.7986 45.4529 23.7188 45.6835 23.5592C45.914 23.3952 46.0847 23.1691 46.1955 22.8809L46.8273 23.107C46.6765 23.5193 46.426 23.8452 46.0758 24.0846C45.73 24.324 45.3199 24.4437 44.8456 24.4437ZM52.7871 24.3572V20.3274H51.2709V19.7222H54.9816V20.3274H53.472V24.3572H52.7871ZM59.7292 24.3572V19.7222H60.4075V24.3572H59.7292ZM67.536 24.4437C67.1059 24.4437 66.7269 24.3439 66.3988 24.1444C66.0752 23.9449 65.8225 23.6656 65.6407 23.3065C65.459 22.943 65.3681 22.5218 65.3681 22.0431C65.3681 21.5598 65.459 21.1387 65.6407 20.7796C65.8225 20.416 66.0752 20.1345 66.3988 19.935C66.7269 19.7355 67.1059 19.6358 67.536 19.6358C67.9749 19.6358 68.3583 19.7355 68.6864 19.935C69.0145 20.1345 69.2694 20.416 69.4511 20.7796C69.6329 21.1387 69.7238 21.5598 69.7238 22.0431C69.7238 22.5218 69.6307 22.943 69.4445 23.3065C69.2627 23.6656 69.0078 23.9449 68.6798 24.1444C68.3517 24.3439 67.9704 24.4437 67.536 24.4437ZM67.536 23.7986C67.8463 23.7986 68.1123 23.7277 68.334 23.5858C68.5556 23.4395 68.7285 23.2356 68.8527 22.974C68.9768 22.708 69.0388 22.3977 69.0388 22.0431C69.0388 21.684 68.9768 21.3736 68.8527 21.1121C68.7285 20.8461 68.5556 20.6421 68.334 20.5003C68.1123 20.354 67.8463 20.2808 67.536 20.2808C67.2345 20.2808 66.9707 20.3517 66.7446 20.4936C66.5229 20.6355 66.35 20.8394 66.2259 21.1054C66.1062 21.367 66.0464 21.6795 66.0464 22.0431C66.0464 22.4021 66.1062 22.7147 66.2259 22.9807C66.35 23.2423 66.5229 23.444 66.7446 23.5858C66.9707 23.7277 67.2345 23.7986 67.536 23.7986ZM74.6916 24.3572V19.7222H75.3965L77.7041 23.4794H77.5445V19.7222H78.2161V24.3572H77.4979L75.2103 20.5934H75.3699V24.3572H74.6916Z" fill="#ECECED"/>
</svg>
