<svg width="41" height="33" viewBox="0 0 41 33" fill="none" xmlns="http://www.w3.org/2000/svg">
<path d="M21.4477 9.63907C21.384 9.57563 21.2813 9.541 21.2 9.51876L21.1695 9.51067C21.0324 9.4718 20.7131 9.51293 20.6135 9.43447C20.671 9.29986 20.9785 9.19698 21.1021 9.11502C21.4185 8.90531 21.6898 8.60832 22.0164 8.4164C22.4649 8.15288 22.97 8.05226 23.4737 8.11599C23.6905 8.14348 23.9786 8.15011 24.1673 8.27742L24.1485 8.28442C23.9219 8.36587 23.6795 8.39074 23.4498 8.47167C23.0521 8.61189 22.7206 8.83611 22.3492 9.03634C22.1357 9.16023 21.9231 9.29184 21.692 9.36819C21.6289 9.38904 21.4705 9.4072 21.4544 9.48339L21.4477 9.63907Z" fill="#FFFEFE"/>
<path d="M22.349 9.03629C22.6566 9.14056 22.9728 9.55217 23.1168 9.87373L23.1288 9.90334C23.296 10.1781 23.4457 10.4469 23.6598 10.6798C23.7533 10.7814 23.8626 10.8604 23.9554 10.9616L23.9395 10.9947C24.0203 11.0658 24.1502 11.1593 24.2442 11.203C24.3448 11.2497 24.4364 11.3076 24.5432 11.3359L24.621 11.3563C24.7065 11.3927 24.7891 11.4037 24.8723 11.4382C24.9487 11.4698 25.0101 11.4527 25.0875 11.4657C25.1311 11.473 25.1674 11.5058 25.2124 11.5144C25.2868 11.5285 25.3593 11.512 25.4344 11.534C25.4128 11.5918 25.4245 11.5721 25.3914 11.6183C25.356 11.6678 25.3211 11.7131 25.2909 11.7674L25.273 11.8007C25.2282 11.8227 25.2419 11.8194 25.2023 11.8285L25.1114 11.8485C25.0017 11.7834 24.8292 11.8255 24.7117 11.7807C24.6561 11.7596 24.7058 11.7715 24.6501 11.7588L24.5013 11.7255L24.4415 11.7118L24.3978 11.6934C24.3344 11.6757 24.2701 11.6565 24.2064 11.6387C24.1145 11.613 23.9787 11.6038 23.8954 11.5567C23.8521 11.5322 23.849 11.5173 23.7962 11.5063C23.7454 11.4957 23.7588 11.5036 23.7143 11.477L23.6879 11.459L23.6447 11.4794L23.5922 11.4631C23.5455 11.4511 23.5098 11.444 23.4658 11.4202L23.2095 11.2742C23.1717 11.2532 23.1402 11.2369 23.1071 11.2066L22.9702 11.0828C22.8667 11.0265 22.71 10.8345 22.6353 10.7273C22.6139 10.6967 22.6035 10.6695 22.5755 10.6454L22.5395 10.6179C22.5173 10.5414 22.4517 10.4867 22.4021 10.4305C22.251 10.2586 22.102 10.1303 21.9413 9.97523C21.904 9.93921 21.8763 9.9099 21.8322 9.88467L21.7977 9.86586L21.75 9.82495C21.7184 9.80752 21.7035 9.81358 21.6694 9.78754L21.5305 9.68306C21.5136 9.68743 21.4635 9.64879 21.4475 9.63901L21.4543 9.48334C21.4703 9.40714 21.6287 9.38898 21.6919 9.36813C21.9229 9.29179 22.1355 9.16017 22.349 9.03629ZM22.349 9.03629C22.1355 9.16017 21.9229 9.29179 21.6919 9.36813C21.6287 9.38898 21.4703 9.40714 21.4543 9.48334L21.4475 9.63901C21.4635 9.64879 21.5136 9.68743 21.5305 9.68306C21.6004 9.68116 21.7632 9.70121 21.8216 9.67496C21.8484 9.663 21.8661 9.63056 21.8934 9.62028C21.9301 9.60642 22.0187 9.62028 22.0609 9.62028L22.0968 9.70231L22.1236 9.70887C22.1585 9.71915 22.1763 9.73286 22.2045 9.75699C22.2739 9.75692 22.3624 9.77325 22.4198 9.72965C22.5034 9.72965 22.6389 9.70515 22.7069 9.75699C22.7606 9.75699 22.7541 9.75233 22.8026 9.78434L22.8377 9.80395C22.8832 9.82991 22.8636 9.81627 22.8989 9.84668C22.9264 9.87023 22.9502 9.88044 22.9823 9.89342L23.0299 9.84705C23.0736 9.89138 23.0666 9.8975 23.1288 9.90334L23.1168 9.87373C22.9728 9.55217 22.6566 9.14056 22.349 9.03629Z" fill="#FF970D" fill-opacity="0.0509804"/>
<path d="M22.349 9.03629C22.6566 9.14056 22.9728 9.55217 23.1168 9.87373L23.1288 9.90334C23.0666 9.8975 23.0736 9.89138 23.0299 9.84705L22.9823 9.89342C22.9502 9.88044 22.9264 9.87023 22.8989 9.84668C22.8636 9.81627 22.8832 9.82991 22.8377 9.80395L22.8026 9.78434C22.7541 9.75233 22.7606 9.75699 22.7069 9.75699C22.6389 9.70515 22.5034 9.72965 22.4198 9.72965C22.3624 9.77325 22.2739 9.75692 22.2045 9.75699C22.1763 9.73286 22.1585 9.71915 22.1236 9.70887L22.0968 9.70231L22.0609 9.62028C22.0187 9.62028 21.9301 9.60642 21.8934 9.62028C21.8661 9.63056 21.8484 9.663 21.8216 9.67496C21.7632 9.70121 21.6004 9.68116 21.5305 9.68306C21.5136 9.68743 21.4635 9.64879 21.4475 9.63901L21.4543 9.48334C21.4703 9.40714 21.6287 9.38898 21.6919 9.36813C21.9229 9.29179 22.1355 9.16017 22.349 9.03629Z" fill="#FF960C" fill-opacity="0.0196078"/>
<path d="M3.35327 0.506714C3.72964 0.723422 4.14614 0.827402 4.55065 0.956829C5.07287 1.12395 5.59528 1.2913 6.11673 1.46127C7.11007 1.78494 8.10187 2.1165 9.09769 2.42982C9.45773 2.54313 9.81496 2.67817 10.1789 2.77348C9.41626 2.76443 8.68355 3.03897 7.92086 3.03386C7.49269 3.03102 7.08219 2.93316 6.67015 2.80592C6.09415 2.62801 5.54959 2.3989 5.04301 2.03206C4.6214 1.72676 4.24446 1.33672 3.86484 0.969151C3.69519 0.804797 3.51176 0.688495 3.35327 0.506714Z" fill="#16161D"/>
<path d="M8.29658 5.02429C8.67282 4.99148 9.06118 5.01693 9.43787 5.03261C10.8152 5.08984 12.1301 5.30429 13.4635 5.70884C13.747 5.7948 14.0266 5.86422 14.3036 5.97666C12.9747 5.95653 11.6594 6.07218 10.3375 6.21138C8.70306 6.38346 7.0971 6.62482 5.47454 6.90941L0.329102 7.98734C0.951293 7.27691 1.79629 6.80142 2.60709 6.43246C4.43597 5.60026 6.34372 5.20848 8.29658 5.02429Z" fill="#16161D"/>
<path d="M14.589 8.90705C14.7051 8.87927 14.862 8.89312 14.9826 8.88846C14.6062 9.06317 14.2088 9.16817 13.8182 9.29271C12.6978 9.64978 11.5562 9.9203 10.4211 10.2078C9.0177 10.5634 7.60748 10.9624 6.24607 11.4923C5.69086 11.7084 5.15224 11.9601 4.60469 12.1982C4.17722 12.3842 3.73903 12.538 3.31493 12.7345C2.24703 13.2294 1.24895 13.8565 0.289349 14.5825L0 14.7698C0.260293 14.246 0.571839 13.7721 0.910162 13.3115C1.81675 12.0772 3.05954 11.0905 4.37386 10.5144C5.17968 10.1611 6.03629 9.93817 6.88173 9.74756C7.63574 9.57759 8.39135 9.41623 9.15634 9.32326C10.2347 9.19223 11.3058 9.16642 12.3868 9.10305C13.1243 9.05981 13.854 8.98208 14.589 8.90705Z" fill="#16161D"/>
<path d="M15.6649 13.2281L16.2445 13.225C15.9723 13.3732 15.6496 13.4453 15.3585 13.5349C14.8235 13.6995 14.2864 13.8555 13.7519 14.0223C12.0971 14.5385 10.5166 15.4287 9.16491 16.6364C7.99133 17.685 7.001 18.9444 6.10936 20.3014C5.76904 20.8193 5.42732 21.3317 5.12221 21.8786C4.75975 22.5282 4.46831 23.2062 4.1352 23.8722C4.13143 23.4557 4.20429 23.065 4.27033 22.6574C4.4091 21.8014 4.5873 20.9636 4.82503 20.1359C4.96054 19.664 5.13198 19.2021 5.25964 18.7287L5.26768 18.6981L5.22742 18.664C5.00558 18.7858 4.80033 18.9562 4.5924 19.1064C3.93186 19.5838 3.33703 20.1112 2.76964 20.7255C2.43404 21.0889 2.1236 21.4887 1.80322 21.8699C1.93771 21.5446 2.11407 21.2703 2.29693 20.9796C2.64561 20.4252 3.02159 19.9145 3.41653 19.4031C4.99582 17.3581 7.0396 15.9226 9.22686 14.8829C10.1586 14.44 11.1266 14.0549 12.11 13.7908C13.2727 13.4785 14.4738 13.311 15.6649 13.2281Z" fill="#16161D"/>
<path d="M15.4534 16.9482L15.473 16.9645C15.3848 17.0964 15.1793 17.2162 15.0575 17.3161C13.5043 18.5897 12.3719 20.4537 11.8605 22.5602C11.6928 23.2509 11.6155 23.9547 11.5146 24.6598C11.8244 24.0159 12.2179 23.4571 12.64 22.9064C13.9642 21.1783 15.5405 19.8277 17.286 18.7007C17.9121 18.2965 18.509 17.9193 19.202 17.6777C18.9411 17.9329 18.6294 18.1373 18.3493 18.3658C17.8589 18.766 17.3819 19.1917 16.9254 19.6415C15.9161 20.6361 14.9898 21.733 14.2713 23.0208C14.0016 23.5041 13.7865 24.0255 13.5126 24.5036C13.2319 24.9933 12.8883 25.4342 12.5964 25.9173C12.2619 26.5229 11.9485 27.2419 11.8628 27.9605C11.8276 28.2564 11.8318 28.5725 11.8205 28.871C11.5437 28.3578 11.3299 27.7808 11.1257 27.2255C10.3891 25.2221 9.92747 23.1571 9.85174 20.9804C9.18832 21.361 8.55432 21.7943 7.92396 22.241C7.34425 22.6516 6.77086 23.0667 6.22114 23.5289C5.95898 23.7493 5.69835 23.9783 5.44875 24.2171C5.2236 24.4326 5.026 24.656 4.77551 24.8345C5.15584 24.2533 5.63722 23.7092 6.09233 23.2032C6.70687 22.5202 7.33551 21.8654 8.02368 21.2791C8.72691 20.6801 9.48443 20.1534 10.2435 19.6528C10.938 19.1949 11.6402 18.7524 12.3657 18.3612C12.947 18.0477 13.5436 17.7775 14.1415 17.5086C14.577 17.3128 15.008 17.114 15.4534 16.9482Z" fill="#16161D"/>
<path d="M3.35315 0.506722L3.30664 0.446201L3.32699 0.40741C3.57123 0.428191 3.81342 0.503878 4.05561 0.545951C4.44155 0.612961 4.83923 0.651754 5.22785 0.693316C6.42573 0.821285 7.6508 0.861315 8.85385 0.903899C10.3404 0.956545 11.8302 0.945098 13.3174 0.973316C15.1398 1.00781 16.9621 1.09589 18.7792 1.25623C20.3719 1.39674 21.9479 1.57852 23.5181 1.92641C24.8679 2.22537 26.2192 2.66768 27.491 3.26655C27.893 3.45584 28.2892 3.6533 28.6776 3.87686C28.8129 3.95466 28.9464 4.03655 29.0803 4.11734C29.1007 4.12966 29.1676 4.18099 29.1883 4.18267C29.247 4.18748 29.3553 4.13972 29.4074 4.15598C29.4773 4.17779 29.6172 4.3288 29.6895 4.38297C30.248 4.80137 30.8228 5.16865 31.3261 5.67725C31.2903 5.33432 31.183 5.04484 31.0749 4.72597C31.6207 5.09924 32.1406 5.55161 32.6369 6.00574C33.2217 6.54087 33.7937 7.08454 34.3614 7.64396L34.3734 7.66197C34.4888 7.83121 34.6386 7.97194 34.768 8.12769C34.8567 8.23458 35.0198 8.42285 35.0662 8.55782C35.0953 8.6427 35.0824 8.78714 35.0793 8.87785C35.0687 9.18709 35.0415 9.49691 35.0221 9.80564L31.4291 6.91902C31.908 7.65431 32.2169 8.44371 32.4053 9.33329L32.3966 9.35516C32.1313 9.26985 31.864 9.16522 31.6192 9.01822C31.4332 8.90644 31.2571 8.76972 31.062 8.67813C31.0127 8.68302 30.8038 8.54637 30.7463 8.51684C30.4143 8.34644 30.079 8.1842 29.7392 8.03501C28.3826 7.43935 27.0037 6.95795 25.6019 6.52213C24.0851 6.05043 22.5657 5.60134 21.0321 5.20642C18.5771 4.57423 16.1018 4.06841 13.6287 3.54035C12.477 3.2944 11.3297 3.02337 10.1788 2.77348C9.81484 2.67818 9.45761 2.54314 9.09758 2.42983C8.10175 2.1165 7.10995 1.78495 6.11661 1.46128C5.59516 1.29131 5.07275 1.12396 4.55053 0.956837C4.14602 0.82741 3.72952 0.723431 3.35315 0.506722Z" fill="#FCFDFD"/>
<path d="M23.6035 18.3063C23.7762 18.272 23.9632 18.3027 24.1372 18.317C24.4562 18.3431 24.7743 18.3838 25.0933 18.4072C25.7215 18.4532 26.3516 18.4776 26.9808 18.4919C28.2696 18.5212 29.5502 18.4117 30.8347 18.3267C30.5613 18.5353 30.2664 18.7072 29.9975 18.9256C29.1604 19.6053 28.3891 20.4422 27.6848 21.2933C26.7299 22.4473 25.9088 23.7538 25.2587 25.1577C24.5957 26.5897 24.0841 28.1499 24.0156 29.7815C23.9964 30.2386 24.0092 30.734 24.0693 31.1869C24.1029 31.4405 24.1854 31.7213 24.1916 31.9729C23.184 30.9018 22.1225 29.8853 21.1771 28.7411C20.9408 28.455 20.6966 28.1772 20.4824 27.8684C20.3202 27.6344 20.1787 27.3765 20.0329 27.1289C19.3502 28.3861 19.275 30.0466 19.5508 31.4604L19.8838 32.6742C19.5801 32.3913 19.3471 32.006 19.108 31.6552C18.5614 30.8535 18.0586 30.0231 17.6432 29.1222C17.2549 28.2799 16.9501 27.3901 16.6767 26.4921C16.3588 26.7887 16.0728 27.129 15.8263 27.5039C15.2841 28.3278 15.0447 29.3219 15.1256 30.3466C15.1498 30.6545 15.224 30.9652 15.2615 31.2733C14.8565 30.5486 14.6398 29.6264 14.4723 28.7953C14.3743 28.309 14.2858 27.8521 14.2551 27.3535C14.3695 27.4851 14.4513 27.7412 14.5204 27.9122C14.621 28.1612 14.7281 28.4107 14.8387 28.6541C14.9106 28.5652 14.9598 28.3331 15.0029 28.2156C15.3375 27.3042 15.8851 26.4194 16.3866 25.6179C16.6357 25.2198 16.8727 24.8131 17.1369 24.4271C18.5236 22.401 20.2162 20.6967 22.1004 19.296C22.5772 18.9416 23.0756 18.5516 23.6035 18.3063Z" fill="#16161D"/>
<path d="M31.0621 8.67812C31.2572 8.76971 31.4333 8.90642 31.6193 9.01821C31.8641 9.16521 32.1314 9.26984 32.3967 9.35515L32.4054 9.33328C32.217 8.4437 31.9081 7.6543 31.4292 6.91901L35.0222 9.80563C35.0416 9.4969 35.0688 9.18708 35.0794 8.87784C35.0825 8.78713 35.0954 8.64268 35.0663 8.55781C35.0199 8.42284 34.8568 8.23457 34.7681 8.12768C34.6387 7.97192 34.4889 7.8312 34.3735 7.66196L34.3615 7.64395C34.5386 7.75704 34.6859 7.93328 34.8252 8.09931C34.8377 8.04666 34.8543 7.9965 34.8675 7.94494C34.9072 7.78912 34.772 7.70221 34.8972 7.55251C35.1268 7.56935 35.3128 7.82893 35.494 7.97426C36.4736 8.76023 37.4007 9.54488 38.2007 10.5771C39.0341 11.6525 39.661 12.9364 39.9006 14.3553C40.0216 15.0725 40.0388 15.8372 39.9965 16.5653C39.9382 17.5666 39.6527 18.5498 39.3082 19.4653C39.1887 19.7828 39.0672 20.1562 38.829 20.3837L38.7732 20.4279L38.6811 20.3245C38.5195 21.2435 37.8245 22.0365 37.2667 22.6748C37.4806 22.0639 37.6707 21.467 37.7102 20.8038C37.7462 20.2017 37.7935 19.1083 37.4094 18.6232C37.2821 18.4625 37.1021 18.364 36.9249 18.2936C36.5838 18.1582 36.2184 18.0753 35.868 17.9738C35.2225 17.7867 34.5767 17.6017 33.9307 17.4168C32.8343 17.103 31.7363 16.7953 30.6362 16.4992C29.9447 16.313 29.2517 16.1184 28.553 15.9711C27.9951 15.8536 27.4346 15.7473 26.8747 15.6434C26.5999 15.5924 26.3225 15.5262 26.0462 15.4893C25.601 15.4299 25.1539 15.4129 24.7069 15.3824C24.6693 15.3139 24.6662 15.1706 24.6574 15.0887C24.5522 14.1052 24.7145 13.298 25.0754 12.4063C25.2129 12.0664 25.33 11.7863 25.5334 11.4891C25.2676 11.4561 24.9876 11.432 24.7289 11.353C24.4474 11.267 24.2066 11.1262 23.9555 10.9616C23.8627 10.8604 23.7533 10.7814 23.6599 10.6798C23.4458 10.4469 23.2961 10.1781 23.1288 9.90334L23.1169 9.87374C22.9729 9.55217 22.6567 9.14056 22.3491 9.03629C22.7205 8.83606 23.052 8.61184 23.4498 8.47162C23.6794 8.39068 23.9218 8.36582 24.1485 8.28437L24.1672 8.27737C24.4032 8.26643 24.6279 8.26534 24.8577 8.33855C25.1326 8.42612 25.3599 8.60871 25.614 8.74892C25.7556 8.82709 25.9093 8.87996 26.0588 8.93508C26.4752 9.08864 26.9048 9.19226 27.3267 9.32336C27.6497 9.4237 27.9677 9.54044 28.2876 9.65134C28.4407 9.70443 28.619 9.72929 28.7646 9.79936C28.7926 9.68357 28.9137 9.63618 29.0021 9.57376L29.1269 9.48677L29.1386 9.47729C29.2891 9.3518 29.4669 9.29398 29.6414 9.22594C30.0921 9.02798 30.6347 9.00392 31.1131 8.96119C31.1383 8.90409 31.1559 8.86413 31.1592 8.79968L31.0621 8.67812ZM31.0621 8.67812L31.1592 8.79968C31.1559 8.86413 31.1383 8.90409 31.1131 8.96119C30.6347 9.00392 30.0921 9.02798 29.6414 9.22594C29.4669 9.29398 29.2891 9.3518 29.1386 9.47729L29.1269 9.48677L29.0021 9.57376C28.9137 9.63618 28.7926 9.68357 28.7646 9.79936C28.8425 9.86827 28.979 9.86214 29.0411 9.92106L29.1541 10.0303L29.1192 10.044C29.0791 10.065 29.0727 10.0786 29.0473 10.1125L28.9855 10.1712C28.8255 10.1324 28.5782 10.0401 28.4172 10.0797C28.3574 10.1358 28.2937 10.1901 28.2396 10.2533C28.0905 10.3968 27.9224 10.5465 27.8024 10.7232L27.8236 10.716C27.8988 10.6887 27.9301 10.6641 27.9827 10.5976L28.0888 10.6092L28.0953 10.6527C28.0382 10.7417 28.0461 10.7491 28.0512 10.8541L28.0669 10.8699C28.1696 10.9773 28.2012 11.0848 28.2523 11.2259C28.2847 11.3153 28.3747 11.4222 28.4197 11.5131L28.4416 11.5237C28.5407 11.5897 28.8995 12.1858 28.9755 12.327C28.9989 12.3704 28.9949 12.3795 29.0364 12.3969C29.2382 12.4814 29.2572 12.6971 29.3836 12.8451C29.44 12.9112 29.5193 12.8831 29.5515 12.9572C29.5863 13.0372 29.6133 13.1085 29.6817 13.1554L29.6792 13.1894C29.6763 13.2444 29.6767 13.2207 29.6825 13.2712C29.694 13.37 29.6637 13.4211 29.7177 13.5048C30.3723 13.4219 31.0277 13.3491 31.6822 13.2645C33.4641 13.0341 35.3318 12.821 36.8319 14.1892C37.9649 15.2225 38.5449 16.8008 38.6998 18.4171C38.7436 18.8749 38.7627 19.3206 38.7346 19.7798C38.7235 19.9618 38.6883 20.1432 38.6811 20.3245L38.7732 20.4279L38.829 20.3837C39.0672 20.1562 39.1887 19.7828 39.3082 19.4653C39.6527 18.5498 39.9382 17.5666 39.9965 16.5653C40.0388 15.8372 40.0216 15.0725 39.9006 14.3553C39.661 12.9364 39.0341 11.6525 38.2007 10.5771C37.4007 9.54488 36.4736 8.76023 35.494 7.97426C35.3128 7.82893 35.1268 7.56935 34.8972 7.55251C34.772 7.70221 34.9072 7.78912 34.8675 7.94494C34.8543 7.9965 34.8377 8.04666 34.8252 8.09931C34.6859 7.93328 34.5386 7.75704 34.3615 7.64395L34.3735 7.66196C34.4889 7.8312 34.6387 7.97192 34.7681 8.12768C34.8568 8.23457 35.0199 8.42284 35.0663 8.55781C35.0954 8.64268 35.0825 8.78713 35.0794 8.87784C35.0688 9.18708 35.0416 9.4969 35.0222 9.80563L31.4292 6.91901C31.9081 7.6543 32.217 8.4437 32.4054 9.33328L32.3967 9.35515C32.1314 9.26984 31.8641 9.16521 31.6193 9.01821C31.4333 8.90642 31.2572 8.76971 31.0621 8.67812ZM27.8024 10.7232C27.3282 11.1635 26.9107 11.7595 26.5042 12.2822C26.3274 12.5095 26.1523 12.7816 25.9334 12.9542L25.9217 12.9639L26.0566 12.9839C26.1257 13.106 26.18 13.2808 26.2171 13.4199C26.3345 13.4882 26.4503 13.5687 26.5812 13.5945C26.675 13.6168 26.8443 13.6316 26.9124 13.7079L26.882 13.731C26.8435 13.7635 26.8349 13.7824 26.817 13.8309L26.8381 13.8599C26.8676 13.9025 26.858 13.8843 26.8722 13.937L26.9593 13.9207L29.7177 13.5048C29.6637 13.4211 29.694 13.37 29.6825 13.2712C29.6767 13.2207 29.6763 13.2444 29.6792 13.1894L29.6817 13.1554C29.6133 13.1085 29.5863 13.0372 29.5515 12.9572C29.5193 12.8831 29.44 12.9112 29.3836 12.8451C29.2572 12.6971 29.2382 12.4814 29.0364 12.3969C28.9949 12.3795 28.9989 12.3704 28.9755 12.327C28.8995 12.1858 28.5407 11.5897 28.4416 11.5237L28.4197 11.5131C28.3747 11.4222 28.2847 11.3153 28.2523 11.2259C28.2012 11.0848 28.1696 10.9773 28.0669 10.8699L28.0512 10.8541C28.0461 10.7491 28.0382 10.7417 28.0953 10.6527L28.0888 10.6092L27.9827 10.5976C27.9301 10.6641 27.8988 10.6887 27.8236 10.716L27.8024 10.7232ZM25.076 13.7907L25.0557 13.9549L25.1141 13.9404L25.2551 14.0697C25.3025 14.06 25.3168 14.0457 25.3504 14.0103C25.4061 13.9515 25.4703 13.9388 25.5422 13.9196C25.6263 13.946 25.7146 13.966 25.7877 14.0224L25.8054 14.0794L26.0087 14.0703L26.0079 14.0934L26.0093 14.1134C26.1514 14.124 26.3635 14.0427 26.5067 14.0114C26.6284 14.0007 26.7523 13.9636 26.8722 13.937C26.858 13.8843 26.8676 13.9025 26.8381 13.8599L26.817 13.8309C26.8349 13.7824 26.8435 13.7635 26.882 13.731L26.9124 13.7079C26.8443 13.6316 26.675 13.6168 26.5812 13.5945C26.4503 13.5687 26.3345 13.4882 26.2171 13.4199C26.18 13.2808 26.1257 13.106 26.0566 12.9839L25.9217 12.9639L25.901 12.9545C25.7514 12.8826 25.6557 12.722 25.5662 12.5734C25.5177 12.5927 25.5208 12.6075 25.4946 12.6552L25.4943 12.6962L25.4467 12.7372L25.4465 12.7782L25.4278 12.7974C25.2776 12.9765 25.0838 13.542 25.076 13.7907ZM25.0557 13.9549C25.0361 14.0931 25.0213 14.2243 25.0203 14.365L26.0093 14.1134L26.0079 14.0934L26.0087 14.0703L25.8054 14.0794L25.7877 14.0224C25.7146 13.966 25.6263 13.946 25.5422 13.9196C25.4703 13.9388 25.4061 13.9515 25.3504 14.0103C25.3168 14.0457 25.3025 14.06 25.2551 14.0697L25.1141 13.9404L25.0557 13.9549Z" fill="#16161D"/>
<path d="M24.5638 8.54285C24.6645 8.53928 24.7718 8.5306 24.8708 8.5559C25.0364 8.59827 25.2017 8.71267 25.2897 8.88176C25.3482 8.99413 25.3554 9.14879 25.3202 9.27187C25.2525 9.50768 25.0898 9.62931 24.9047 9.7311C24.7736 9.76092 24.6694 9.77419 24.5386 9.72366C24.3905 9.66642 24.2771 9.53809 24.2125 9.37636C24.1578 9.2392 24.1433 9.05203 24.1907 8.90904C24.2566 8.71049 24.4061 8.62612 24.5638 8.54285Z" fill="#FFFEFE"/>
<path d="M25.0759 13.7907C25.0837 13.542 25.2776 12.9765 25.4277 12.7974L25.4464 12.7782L25.4466 12.7372L25.4942 12.6962L25.4945 12.6552C25.5207 12.6075 25.5177 12.5927 25.5661 12.5734C25.6556 12.722 25.7514 12.8826 25.901 12.9545L25.9216 12.9639L26.0565 12.9839C26.1256 13.106 26.1799 13.2809 26.2171 13.4199C26.3344 13.4882 26.4503 13.5687 26.5812 13.5946C26.6749 13.6168 26.8442 13.6316 26.9124 13.7079L26.8819 13.731C26.8435 13.7635 26.8348 13.7824 26.8169 13.8309L26.838 13.86C26.8675 13.9025 26.8579 13.8843 26.8722 13.937C26.7522 13.9637 26.6283 14.0007 26.5067 14.0114C26.3635 14.0427 26.1513 14.124 26.0093 14.1134L26.0078 14.0934L26.0087 14.0703L25.8053 14.0794L25.7877 14.0224C25.7145 13.9661 25.6262 13.946 25.5421 13.9196C25.4703 13.9388 25.4061 13.9516 25.3503 14.0103C25.3167 14.0457 25.3024 14.06 25.255 14.0697L25.114 13.9404L25.0557 13.9549L25.0759 13.7907ZM25.0759 13.7907L25.0557 13.9549L25.114 13.9404L25.255 14.0697C25.3024 14.06 25.3167 14.0457 25.3503 14.0103C25.4061 13.9516 25.4703 13.9388 25.5421 13.9196C25.6262 13.946 25.7145 13.9661 25.7877 14.0224L25.8053 14.0794L26.0087 14.0703L26.0078 14.0934L26.0093 14.1134C26.1513 14.124 26.3635 14.0427 26.5067 14.0114L26.5534 13.9463L26.5139 13.9182C26.5002 13.8507 26.5185 13.8373 26.543 13.7763L26.4991 13.7053C26.3709 13.668 26.2216 13.6955 26.1015 13.7555C25.9709 13.8206 25.7394 13.8257 25.5981 13.7998C25.5414 13.7895 25.492 13.787 25.4345 13.7874C25.3831 13.8149 25.3554 13.8302 25.3252 13.8871C25.2969 13.9405 25.2995 13.9333 25.255 13.9604C25.215 13.8944 25.1643 13.8385 25.1007 13.8027L25.0759 13.7907Z" fill="#FE5100" fill-opacity="0.556863"/>
<path d="M25.0759 13.7907L25.1007 13.8027C25.1643 13.8385 25.215 13.8944 25.255 13.9604C25.2995 13.9333 25.2969 13.9405 25.3252 13.8871C25.3554 13.8302 25.3831 13.8149 25.4345 13.7874C25.492 13.787 25.5414 13.7895 25.5981 13.7998C25.7394 13.8257 25.9709 13.8206 26.1015 13.7555C26.2216 13.6956 26.3709 13.6681 26.4991 13.7053L26.543 13.7763C26.5185 13.8373 26.5002 13.8507 26.5139 13.9183L26.5534 13.9463L26.5067 14.0114C26.3635 14.0427 26.1513 14.124 26.0093 14.1134L26.0078 14.0935L26.0087 14.0704L25.8053 14.0794L25.7877 14.0224C25.7145 13.9661 25.6262 13.946 25.5421 13.9196C25.4703 13.9388 25.4061 13.9516 25.3503 14.0103C25.3167 14.0457 25.3024 14.06 25.255 14.0697L25.114 13.9404L25.0557 13.9549L25.0759 13.7907Z" fill="#FF6907" fill-opacity="0.301961"/>
<path d="M27.8024 10.7233L27.8236 10.716C27.8987 10.6888 27.9301 10.6641 27.9827 10.5976L28.0888 10.6093L28.0953 10.6528C28.0381 10.7417 28.0461 10.7491 28.0512 10.8541L28.0668 10.8699C28.1696 10.9773 28.2012 11.0849 28.2523 11.2259C28.2847 11.3153 28.3747 11.4222 28.4197 11.5132L28.4416 11.5237C28.5406 11.5897 28.8995 12.1858 28.9755 12.3271C28.9989 12.3705 28.9949 12.3796 29.0364 12.3969C29.2382 12.4814 29.2571 12.6972 29.3835 12.8451C29.4399 12.9112 29.5193 12.8831 29.5515 12.9572C29.5863 13.0373 29.6133 13.1085 29.6817 13.1554L29.6791 13.1895C29.6763 13.2444 29.6766 13.2207 29.6825 13.2713C29.694 13.3701 29.6637 13.4211 29.7177 13.5048L26.9593 13.9207L26.8722 13.9371C26.858 13.8843 26.8676 13.9026 26.8381 13.86L26.817 13.831C26.8348 13.7824 26.8435 13.7635 26.882 13.731L26.9124 13.708C26.8443 13.6316 26.6749 13.6168 26.5812 13.5946C26.4503 13.5688 26.3344 13.4883 26.2171 13.4199C26.18 13.2809 26.1257 13.106 26.0566 12.984L25.9216 12.9639L25.9334 12.9543C26.1523 12.7816 26.3274 12.5096 26.5042 12.2822C26.9107 11.7596 27.3281 11.1635 27.8024 10.7233ZM26.5812 13.5946C26.6749 13.6168 26.8443 13.6316 26.9124 13.708L26.882 13.731C26.8435 13.7635 26.8348 13.7824 26.817 13.831L26.8381 13.86C26.8676 13.9026 26.858 13.8843 26.8722 13.9371L26.9593 13.9207L26.979 13.8443C26.9987 13.7881 27.0468 13.7683 27.0914 13.7444C27.168 13.7031 27.2451 13.6574 27.3246 13.624C27.399 13.5928 27.4792 13.5861 27.5435 13.5303L27.5342 13.4433C27.4 13.3965 27.2314 13.3877 27.1133 13.478C27.0764 13.5062 27.0168 13.5722 26.9784 13.5882C26.9077 13.6178 26.6704 13.5907 26.5812 13.5946Z" fill="url(#paint0_linear_120_86)"/>
<path d="M26.5813 13.5945C26.6705 13.5907 26.9078 13.6177 26.9785 13.5882C27.0169 13.5722 27.0765 13.5062 27.1134 13.478C27.2315 13.3877 27.4001 13.3965 27.5342 13.4432L27.5436 13.5302C27.4793 13.5861 27.3991 13.5927 27.3247 13.6239C27.2452 13.6573 27.1681 13.7031 27.0915 13.7444C27.0469 13.7683 26.9988 13.7881 26.9791 13.8443L26.9594 13.9207L26.8723 13.937C26.8581 13.8843 26.8676 13.9025 26.8382 13.86L26.817 13.8309C26.8349 13.7824 26.8436 13.7635 26.8821 13.731L26.9125 13.7079C26.8444 13.6316 26.675 13.6168 26.5813 13.5945Z" fill="#FF6907" fill-opacity="0.72549"/>
<path d="M31.0621 8.67812C31.2572 8.76971 31.4334 8.90642 31.6194 9.01821C31.8641 9.16521 32.1315 9.26984 32.3968 9.35515L32.4054 9.33328C32.2171 8.4437 31.9082 7.6543 31.4293 6.91901L35.0223 9.80563C35.0417 9.4969 35.0689 9.18708 35.0794 8.87784C35.0826 8.78713 35.0955 8.64268 35.0664 8.55781C35.02 8.42284 34.8568 8.23457 34.7681 8.12768C34.6388 7.97193 34.489 7.8312 34.3735 7.66196L34.3616 7.64395C34.5387 7.75704 34.686 7.93328 34.8253 8.09931C34.8378 8.04666 34.8544 7.9965 34.8676 7.94494C34.9072 7.78912 34.772 7.70221 34.8973 7.55251C35.1269 7.56935 35.3129 7.82894 35.494 7.97426C36.4737 8.76023 37.4008 9.54488 38.2008 10.5771C39.0342 11.6525 39.6611 12.9364 39.9006 14.3553C40.0217 15.0725 40.0389 15.8372 39.9965 16.5653C39.9383 17.5666 39.6528 18.5498 39.3082 19.4653C39.1888 19.7828 39.0673 20.1562 38.829 20.3837L38.7733 20.4279L38.6812 20.3245C38.6884 20.1432 38.7236 19.9618 38.7347 19.7798C38.7627 19.3206 38.7437 18.8749 38.6999 18.4171C38.545 16.8008 37.965 15.2225 36.832 14.1892C35.3319 12.821 33.4642 13.0341 31.6823 13.2645C31.0278 13.3491 30.3724 13.4219 29.7178 13.5048C29.6638 13.4211 29.6941 13.37 29.6826 13.2712C29.6767 13.2207 29.6764 13.2444 29.6792 13.1894L29.6818 13.1554C29.6134 13.1085 29.5864 13.0372 29.5516 12.9572C29.5194 12.8831 29.44 12.9112 29.3836 12.8451C29.2572 12.6971 29.2383 12.4814 29.0365 12.3969C28.995 12.3795 28.999 12.3704 28.9756 12.327C28.8996 12.1858 28.5407 11.5897 28.4417 11.5237L28.4198 11.5131C28.3748 11.4222 28.2848 11.3153 28.2524 11.2259C28.2013 11.0848 28.1697 10.9773 28.0669 10.8699L28.0513 10.8541C28.0462 10.7491 28.0382 10.7417 28.0954 10.6527L28.0889 10.6092L27.9828 10.5976C27.9302 10.6641 27.8988 10.6887 27.8237 10.716L27.8025 10.7232C27.9225 10.5465 28.0906 10.3968 28.2397 10.2533C28.2938 10.1901 28.3574 10.1358 28.4173 10.0797C28.5783 10.0401 28.8256 10.1324 28.9856 10.1712L29.0474 10.1125C29.0727 10.0786 29.0792 10.065 29.1193 10.044L29.1541 10.0303L29.0411 9.92106C28.9791 9.86214 28.8426 9.86827 28.7647 9.79936C28.7927 9.68357 28.9137 9.63618 29.0022 9.57376L29.127 9.48677L29.1387 9.47729C29.2891 9.3518 29.467 9.29398 29.6415 9.22595C30.0922 9.02798 30.6348 9.00392 31.1132 8.96119C31.1384 8.90409 31.1559 8.86413 31.1593 8.79968L31.0621 8.67812ZM29.0411 9.92106L29.1541 10.0303L29.1193 10.044C29.0792 10.065 29.0727 10.0786 29.0474 10.1125L28.9856 10.1712C29.2809 10.2719 29.6015 10.3308 29.8879 10.4577L31.21 10.8558L30.122 10.3047L29.0411 9.92106ZM29.0022 9.57376C28.9137 9.63618 28.7927 9.68357 28.7647 9.79936C28.8426 9.86827 28.9791 9.86214 29.0411 9.92106L30.122 10.3047L30.1287 10.2749L30.0583 10.2217C29.9975 10.1949 29.8833 10.1425 29.8205 10.1306C29.7809 10.123 29.7958 10.133 29.7607 10.108L29.7412 10.0918L29.7053 10.0985C29.6621 10.0642 29.6429 10.0527 29.5895 10.045C29.5311 10.0366 29.4954 10.0186 29.4422 9.98917C29.4509 9.93521 29.4582 9.90145 29.4434 9.84749C29.4287 9.79433 29.3711 9.78033 29.329 9.75693L29.3173 9.70917L29.4085 9.66359C29.4405 9.64252 29.4529 9.62706 29.4899 9.61591C29.534 9.60256 29.5728 9.58601 29.6154 9.56712L29.607 9.53314C29.467 9.53278 29.3714 9.60482 29.2396 9.62582C29.1626 9.63807 29.0652 9.62837 29.0022 9.57376ZM28.2397 10.2533L28.3113 10.2719L28.355 10.2225L28.3954 10.2831L28.3535 10.3037L28.3655 10.3436C28.3909 10.3307 28.4766 10.2993 28.4916 10.2795C28.4961 10.2735 28.5279 10.1865 28.5319 10.182C28.5763 10.1322 28.7844 10.1647 28.8403 10.1882C28.8875 10.2081 28.926 10.2319 28.9637 10.2705L28.9973 10.2602C29.0657 10.2445 29.1065 10.2685 29.1647 10.3038C29.2167 10.3354 29.2505 10.3322 29.3077 10.3344C29.3475 10.3358 29.3719 10.3513 29.4064 10.3718C29.4575 10.4022 29.5086 10.3936 29.5643 10.3909C29.6037 10.4149 29.6364 10.4423 29.6722 10.4725L29.8879 10.4577C29.6015 10.3308 29.2809 10.2719 28.9856 10.1712C28.8256 10.1324 28.5783 10.0401 28.4173 10.0797C28.3574 10.1358 28.2938 10.1901 28.2397 10.2533ZM29.127 9.48677L29.1569 9.50478C29.2084 9.52527 29.3852 9.52053 29.4326 9.49042C29.5531 9.41385 29.6023 9.37491 29.6415 9.22595C29.467 9.29398 29.2891 9.3518 29.1387 9.47729L29.127 9.48677Z" fill="url(#paint1_linear_120_86)"/>
<path d="M29.127 9.48681L29.1386 9.47733C29.2891 9.35184 29.467 9.29401 29.6414 9.22598C29.6022 9.37495 29.553 9.41389 29.4325 9.49045C29.3851 9.52057 29.2084 9.52531 29.1569 9.50482L29.127 9.48681Z" fill="#FF6907" fill-opacity="0.988235"/>
<path d="M28.2396 10.2533C28.2937 10.1901 28.3574 10.1358 28.4172 10.0796C28.5782 10.04 28.8256 10.1323 28.9855 10.1711C29.2809 10.2719 29.6014 10.3307 29.8879 10.4577L29.6722 10.4724C29.6364 10.4423 29.6036 10.4149 29.5643 10.3909C29.5085 10.3935 29.4575 10.4021 29.4064 10.3718C29.3719 10.3513 29.3475 10.3358 29.3077 10.3343C29.2505 10.3322 29.2167 10.3353 29.1646 10.3038C29.1064 10.2685 29.0657 10.2445 28.9973 10.2602L28.9636 10.2704C28.9259 10.2319 28.8875 10.2081 28.8403 10.1882C28.7844 10.1647 28.5762 10.1322 28.5318 10.182C28.5278 10.1864 28.4961 10.2734 28.4915 10.2795C28.4765 10.2992 28.3909 10.3307 28.3654 10.3436L28.3535 10.3036L28.3954 10.2831L28.3549 10.2225L28.3113 10.2719L28.2396 10.2533Z" fill="#FF6907" fill-opacity="0.894118"/>
<path d="M29.002 9.57376C29.065 9.62837 29.1624 9.63807 29.2394 9.62582C29.3713 9.60482 29.4669 9.53278 29.6068 9.53314L29.6152 9.56712C29.5726 9.58601 29.5339 9.60256 29.4897 9.6159C29.4528 9.62706 29.4404 9.64252 29.4084 9.66359L29.3171 9.70916L29.3289 9.75692C29.371 9.78033 29.4285 9.79433 29.4432 9.84749C29.4581 9.90145 29.4508 9.93521 29.442 9.98916C29.4953 10.0185 29.5309 10.0366 29.5894 10.045C29.6428 10.0527 29.662 10.0642 29.7052 10.0985L29.7411 10.0918L29.7605 10.108C29.7956 10.133 29.7807 10.123 29.8203 10.1305C29.8831 10.1425 29.9973 10.1949 30.0581 10.2217L30.1285 10.2749L30.1219 10.3047L29.041 9.92106C28.9789 9.86214 28.8424 9.86827 28.7645 9.79936C28.7925 9.68357 28.9136 9.63618 29.002 9.57376Z" fill="#FF6907" fill-opacity="0.823529"/>
<path d="M29.041 9.92105L30.1219 10.3047L31.2099 10.8558L29.8878 10.4577C29.6014 10.3308 29.2808 10.2719 28.9855 10.1712L29.0473 10.1125C29.0726 10.0786 29.0791 10.065 29.1192 10.044L29.154 10.0303L29.041 9.92105Z" fill="#171216" fill-opacity="0.941176"/>
<defs>
<linearGradient id="paint0_linear_120_86" x1="26.648" y1="14.0167" x2="29.2111" y2="12.196" gradientUnits="userSpaceOnUse">
<stop stop-color="#FE5602" stop-opacity="0.709804"/>
<stop offset="1" stop-color="#FF720D"/>
</linearGradient>
<linearGradient id="paint1_linear_120_86" x1="31.1134" y1="16.5976" x2="39.2039" y2="12.2848" gradientUnits="userSpaceOnUse">
<stop stop-color="#FF6E0B" stop-opacity="0.968627"/>
<stop offset="1" stop-color="#FFC026"/>
</linearGradient>
</defs>
</svg>
