<?xml version="1.0" encoding="UTF-8"?>
<svg viewBox="0 0 197 73" fill="none"
    xmlns="http://www.w3.org/2000/svg">
    <path d="M38.0813 30.4476C37.9865 30.3649 37.8335 30.3198 37.7123 30.2908L37.6669 30.2802C37.4627 30.2296 36.987 30.2832 36.8386 30.1809C36.9243 30.0054 37.3823 29.8713 37.5665 29.7645C38.0378 29.4911 38.4421 29.104 38.9286 28.8538C39.5967 28.5103 40.3493 28.3791 41.0997 28.4622C41.4227 28.498 41.8519 28.5066 42.133 28.6726L42.1051 28.6817C41.7674 28.7879 41.4063 28.8203 41.0642 28.9258C40.4716 29.1086 39.9777 29.4009 39.4244 29.6619C39.1063 29.8234 38.7896 29.995 38.4454 30.0945C38.3513 30.1217 38.1153 30.1453 38.0914 30.2447L38.0813 30.4476Z" fill="#FFFEFE"/>
    <path d="M39.4244 29.6616C39.8826 29.7975 40.3537 30.3341 40.5682 30.7533L40.586 30.7919C40.8352 31.15 41.0582 31.5004 41.3772 31.804C41.5164 31.9365 41.6793 32.0395 41.8176 32.1714L41.7938 32.2145C41.9142 32.3072 42.1077 32.4291 42.2478 32.4861C42.3977 32.547 42.5341 32.6225 42.6932 32.6593L42.8092 32.6859C42.9366 32.7334 43.0596 32.7477 43.1836 32.7926C43.2973 32.8339 43.3888 32.8116 43.5042 32.8286C43.5691 32.8381 43.6231 32.8808 43.6902 32.8921C43.8011 32.9104 43.909 32.8888 44.021 32.9176C43.9888 32.9929 44.0062 32.9672 43.9569 33.0274C43.9042 33.092 43.8521 33.1511 43.8071 33.2218L43.7804 33.2652C43.7137 33.2938 43.7342 33.2896 43.6751 33.3015L43.5398 33.3276C43.3764 33.2427 43.1193 33.2976 42.9443 33.2392C42.8615 33.2116 42.9354 33.2272 42.8525 33.2107L42.6309 33.1672L42.5417 33.1494L42.4767 33.1253C42.3821 33.1022 42.2863 33.0772 42.1915 33.054C42.0546 33.0206 41.8522 33.0085 41.7282 32.9471C41.6637 32.9153 41.6591 32.8959 41.5804 32.8815C41.5047 32.8676 41.5247 32.878 41.4584 32.8433L41.419 32.8198L41.3547 32.8463L41.2764 32.8251C41.2069 32.8095 41.1537 32.8002 41.0881 32.7692L40.7063 32.5789C40.65 32.5516 40.603 32.5303 40.5537 32.4908L40.3498 32.3294C40.1955 32.2561 39.9621 32.0057 39.8508 31.866C39.8189 31.8261 39.8035 31.7906 39.7618 31.7592L39.7082 31.7234C39.6751 31.6237 39.5773 31.5524 39.5035 31.479C39.2783 31.255 39.0563 31.0878 38.8169 30.8856C38.7614 30.8387 38.7201 30.8004 38.6544 30.7676L38.603 30.743L38.5319 30.6897C38.4848 30.667 38.4627 30.6749 38.4118 30.6409L38.2049 30.5047C38.1798 30.5104 38.1051 30.4601 38.0813 30.4473L38.0914 30.2444C38.1152 30.1451 38.3512 30.1214 38.4454 30.0942C38.7895 29.9947 39.1062 29.8231 39.4244 29.6616ZM39.4244 29.6616C39.1062 29.8231 38.7895 29.9947 38.4454 30.0942C38.3512 30.1214 38.1152 30.1451 38.0914 30.2444L38.0813 30.4473C38.1051 30.4601 38.1798 30.5104 38.2049 30.5047C38.309 30.5023 38.5516 30.5284 38.6387 30.4942C38.6786 30.4786 38.7049 30.4363 38.7456 30.4229C38.8003 30.4048 38.9323 30.4229 38.9951 30.4229L39.0486 30.5298L39.0886 30.5384C39.1406 30.5518 39.1671 30.5697 39.209 30.6011C39.3125 30.601 39.4443 30.6223 39.5298 30.5655C39.6544 30.5655 39.8562 30.5335 39.9575 30.6011C40.0376 30.6011 40.0279 30.595 40.1001 30.6368L40.1524 30.6623C40.2202 30.6962 40.191 30.6784 40.2436 30.718C40.2846 30.7487 40.3201 30.762 40.3678 30.779L40.4388 30.7185C40.5038 30.7763 40.4933 30.7843 40.586 30.7919L40.5682 30.7533C40.3537 30.3341 39.8826 29.7975 39.4244 29.6616Z" fill="#FF970D" fill-opacity="0.0509804"/>
    <path d="M39.4244 29.6616C39.8826 29.7975 40.3537 30.3341 40.5682 30.7533L40.586 30.7919C40.4933 30.7843 40.5038 30.7763 40.4388 30.7185L40.3678 30.779C40.3201 30.762 40.2846 30.7487 40.2436 30.718C40.191 30.6784 40.2202 30.6962 40.1524 30.6623L40.1001 30.6368C40.0279 30.595 40.0376 30.6011 39.9575 30.6011C39.8562 30.5335 39.6544 30.5655 39.5298 30.5655C39.4443 30.6223 39.3125 30.601 39.209 30.6011C39.1671 30.5697 39.1406 30.5518 39.0886 30.5384L39.0486 30.5298L38.9951 30.4229C38.9323 30.4229 38.8003 30.4048 38.7456 30.4229C38.7049 30.4363 38.6786 30.4786 38.6387 30.4942C38.5516 30.5284 38.309 30.5023 38.2049 30.5047C38.1798 30.5104 38.1051 30.4601 38.0813 30.4473L38.0914 30.2444C38.1152 30.1451 38.3512 30.1214 38.4454 30.0942C38.7895 29.9947 39.1062 29.8231 39.4244 29.6616Z" fill="#FF960C" fill-opacity="0.0196078"/>
    <path d="M11.1245 18.543C11.6852 18.8255 12.3057 18.961 12.9084 19.1297C13.6864 19.3476 14.4646 19.5657 15.2415 19.7873C16.7214 20.2092 18.199 20.6414 19.6825 21.0499C20.2189 21.1976 20.7511 21.3736 21.2934 21.4979C20.1571 21.4861 19.0655 21.8439 17.9293 21.8373C17.2914 21.8336 16.6798 21.706 16.066 21.5402C15.2079 21.3082 14.3966 21.0096 13.6419 20.5314C13.0138 20.1334 12.4522 19.6249 11.8866 19.1458C11.6339 18.9315 11.3606 18.7799 11.1245 18.543Z" fill="#16161D"/>
    <path d="M18.4888 24.4319C19.0493 24.3892 19.6279 24.4223 20.1891 24.4428C22.241 24.5174 24.1999 24.7969 26.1864 25.3243C26.6088 25.4364 27.0253 25.5268 27.4381 25.6734C25.4583 25.6472 23.4987 25.7979 21.5293 25.9794C19.0944 26.2037 16.7018 26.5183 14.2846 26.8893L6.6189 28.2945C7.54584 27.3684 8.80471 26.7485 10.0126 26.2676C12.7373 25.1828 15.5794 24.672 18.4888 24.4319Z" fill="#16161D"/>
    <path d="M27.8633 29.493C28.0363 29.4568 28.2701 29.4748 28.4497 29.4688C27.889 29.6965 27.2969 29.8334 26.7149 29.9957C25.0458 30.4612 23.345 30.8138 21.654 31.1886C19.5632 31.6521 17.4622 32.1722 15.434 32.8631C14.6069 33.1448 13.8045 33.4728 12.9887 33.7833C12.3519 34.0256 11.699 34.2262 11.0672 34.4824C9.47628 35.1275 7.98935 35.9449 6.55973 36.8913L6.12866 37.1355C6.51645 36.4527 6.98059 35.835 7.48462 35.2345C8.83525 33.6255 10.6867 32.3393 12.6448 31.5882C13.8453 31.1277 15.1215 30.8371 16.381 30.5887C17.5044 30.3671 18.6301 30.1567 19.7697 30.0355C21.3762 29.8647 22.972 29.8311 24.5824 29.7485C25.6812 29.6921 26.7683 29.5908 27.8633 29.493Z" fill="#16161D"/>
    <path d="M29.4663 35.1261L30.3298 35.1221C29.9242 35.3152 29.4435 35.4092 29.0098 35.526C28.2128 35.7407 27.4125 35.944 26.6163 36.1614C24.1509 36.8342 21.7963 37.9947 19.7826 39.5691C18.0342 40.9359 16.5588 42.5778 15.2305 44.3466C14.7234 45.0217 14.2143 45.6898 13.7598 46.4027C13.2198 47.2495 12.7856 48.1333 12.2894 49.0015C12.2837 48.4585 12.3923 47.9493 12.4907 47.4178C12.6974 46.302 12.9629 45.2099 13.3171 44.1309C13.5189 43.5157 13.7744 42.9136 13.9645 42.2965L13.9765 42.2567L13.9165 42.2122C13.5861 42.3709 13.2803 42.5931 12.9705 42.7889C11.9864 43.4112 11.1002 44.0987 10.2549 44.8995C9.75498 45.3732 9.29249 45.8944 8.81519 46.3913C9.01555 45.9672 9.27829 45.6096 9.55071 45.2308C10.0702 44.508 10.6303 43.8423 11.2187 43.1756C13.5715 40.5099 16.6163 38.6386 19.8749 37.2833C21.2629 36.7059 22.7051 36.2039 24.1702 35.8596C25.9024 35.4525 27.6918 35.2342 29.4663 35.1261Z" fill="#16161D"/>
    <path d="M29.1512 39.9756L29.1805 39.9969C29.0492 40.1688 28.743 40.325 28.5615 40.4552C26.2475 42.1155 24.5605 44.5453 23.7986 47.2913C23.5488 48.1917 23.4336 49.1091 23.2833 50.0283C23.7448 49.1889 24.331 48.4605 24.9598 47.7426C26.9326 45.4899 29.281 43.7293 31.8815 42.2602C32.8142 41.7332 33.7035 41.2415 34.7359 40.9266C34.3472 41.2593 33.8829 41.5257 33.4657 41.8236C32.735 42.3453 32.0243 42.9002 31.3443 43.4865C29.8407 44.7831 28.4606 46.213 27.3902 47.8917C26.9884 48.5217 26.668 49.2014 26.2598 49.8246C25.8417 50.4631 25.3299 51.0378 24.8949 51.6675C24.3966 52.457 23.9297 53.3943 23.8021 54.3309C23.7496 54.7167 23.7559 55.1288 23.739 55.5178C23.3266 54.8489 23.0081 54.0967 22.7039 53.3728C21.6066 50.7612 20.9188 48.0694 20.8059 45.2319C19.8176 45.728 18.8731 46.2929 17.9339 46.8751C17.0703 47.4105 16.2161 47.9515 15.3971 48.554C15.0065 48.8414 14.6182 49.1399 14.2464 49.4512C13.911 49.7321 13.6166 50.0233 13.2434 50.2559C13.81 49.4984 14.5272 48.7891 15.2052 48.1295C16.1207 47.2392 17.0573 46.3855 18.0825 45.6213C19.1302 44.8404 20.2587 44.1539 21.3897 43.5014C22.4242 42.9044 23.4704 42.3276 24.5512 41.8176C25.4173 41.409 26.3061 41.0567 27.1969 40.7062C27.8456 40.4509 28.4877 40.1917 29.1512 39.9756Z" fill="#16161D"/>
    <path d="M11.1245 18.5425L11.0552 18.4637L11.0855 18.4131C11.4494 18.4402 11.8102 18.5388 12.171 18.5937C12.746 18.681 13.3384 18.7316 13.9174 18.7858C15.702 18.9526 17.5271 19.0048 19.3194 19.0603C21.534 19.1289 23.7536 19.114 25.9692 19.1508C28.6842 19.1957 31.3991 19.3106 34.1061 19.5196C36.479 19.7028 38.8268 19.9397 41.1662 20.3932C43.177 20.7829 45.1902 21.3595 47.085 22.1402C47.6839 22.3869 48.2741 22.6443 48.8527 22.9358C49.0543 23.0372 49.2532 23.1439 49.4526 23.2492C49.483 23.2653 49.5828 23.3322 49.6135 23.3344C49.701 23.3407 49.8624 23.2784 49.94 23.2996C50.0441 23.328 50.2525 23.5249 50.3603 23.5955C51.1923 24.1409 52.0487 24.6197 52.7985 25.2827C52.7451 24.8357 52.5853 24.4583 52.4241 24.0426C53.2374 24.5292 54.0119 25.1189 54.7512 25.7109C55.6226 26.4085 56.4746 27.1172 57.3205 27.8464L57.3382 27.8699C57.5102 28.0905 57.7335 28.274 57.9261 28.477C58.0583 28.6164 58.3013 28.8618 58.3704 29.0377C58.4139 29.1484 58.3946 29.3367 58.3899 29.4549C58.3742 29.858 58.3336 30.2619 58.3047 30.6644L52.9519 26.9014C53.6654 27.8599 54.1256 28.889 54.4062 30.0486L54.3933 30.0771C53.998 29.9659 53.5998 29.8295 53.2351 29.6379C52.9581 29.4922 52.6956 29.3139 52.4049 29.1946C52.3316 29.2009 52.0203 29.0228 51.9346 28.9843C51.4401 28.7622 50.9405 28.5507 50.4343 28.3562C48.4132 27.5797 46.359 26.9522 44.2706 26.3841C42.0109 25.7692 39.7472 25.1837 37.4625 24.6689C33.805 23.8448 30.1173 23.1855 26.433 22.4971C24.7171 22.1765 23.0079 21.8232 21.2933 21.4974C20.7511 21.3732 20.2189 21.1972 19.6825 21.0495C18.1989 20.641 16.7213 20.2088 15.2415 19.7869C14.4646 19.5653 13.6863 19.3472 12.9083 19.1293C12.3057 18.9606 11.6852 18.825 11.1245 18.5425Z" fill="#FCFDFD"/>
    <path d="M41.2934 41.746C41.5507 41.7012 41.8292 41.7413 42.0886 41.7599C42.5637 41.794 43.0376 41.847 43.5129 41.8776C44.4487 41.9375 45.3874 41.9693 46.3249 41.9879C48.245 42.0261 50.1528 41.8834 52.0665 41.7726C51.6591 42.0446 51.2197 42.2686 50.8191 42.5533C49.572 43.4393 48.4229 44.5303 47.3737 45.6397C45.9511 47.1441 44.7278 48.8472 43.7593 50.6773C42.7716 52.5439 42.0094 54.5779 41.9074 56.7047C41.8788 57.3005 41.8978 57.9464 41.9873 58.5368C42.0374 58.8674 42.1603 59.2334 42.1695 59.5613C40.6684 58.1651 39.087 56.8401 37.6785 55.3484C37.3264 54.9756 36.9627 54.6134 36.6436 54.2109C36.402 53.9058 36.1911 53.5696 35.9739 53.2468C34.9569 54.8857 34.8447 57.0503 35.2557 58.8933L35.7517 60.4755C35.2994 60.1067 34.9522 59.6045 34.5961 59.1473C33.7817 58.1021 33.0326 57.0196 32.4138 55.8453C31.8353 54.7472 31.3812 53.5874 30.9738 52.4167C30.5003 52.8034 30.0742 53.247 29.7069 53.7357C28.8992 54.8098 28.5426 56.1056 28.663 57.4414C28.6991 57.8428 28.8096 58.2478 28.8656 58.6494C28.2622 57.7047 27.9393 56.5026 27.6898 55.4192C27.5438 54.7853 27.4119 54.1896 27.3662 53.5396C27.5366 53.7113 27.6584 54.0451 27.7613 54.268C27.9113 54.5925 28.0708 54.9178 28.2357 55.235C28.3428 55.1192 28.416 54.8166 28.4802 54.6635C28.9787 53.4753 29.7946 52.322 30.5417 51.2772C30.9128 50.7582 31.2659 50.2281 31.6595 49.7249C33.7253 47.0838 36.247 44.8621 39.0541 43.0361C39.7644 42.5741 40.5069 42.0658 41.2934 41.746Z" fill="#16161D"/>
    <path d="M52.4048 29.195C52.6955 29.3144 52.9579 29.4926 53.235 29.6383C53.5996 29.8299 53.9979 29.9663 54.3932 30.0775L54.4061 30.049C54.1255 28.8894 53.6653 27.8604 52.9518 26.9019L58.3046 30.6648C58.3335 30.2623 58.3741 29.8585 58.3898 29.4553C58.3944 29.3371 58.4137 29.1488 58.3703 29.0382C58.3012 28.8622 58.0581 28.6168 57.926 28.4774C57.7334 28.2744 57.5101 28.091 57.3381 27.8703L57.3204 27.8469C57.5842 27.9943 57.8036 28.224 58.0111 28.4405C58.0298 28.3718 58.0545 28.3064 58.0741 28.2392C58.1332 28.0361 57.9318 27.9228 58.1184 27.7277C58.4605 27.7496 58.7376 28.088 59.0074 28.2775C60.467 29.302 61.8481 30.3249 63.0399 31.6704C64.2816 33.0723 65.2155 34.7459 65.5724 36.5956C65.7527 37.5305 65.7784 38.5274 65.7153 39.4765C65.6285 40.7817 65.2031 42.0634 64.6898 43.2569C64.5119 43.6707 64.3308 44.1574 63.9759 44.454L63.8928 44.5117L63.7557 44.3769C63.5149 45.5748 62.4795 46.6086 61.6485 47.4406C61.9671 46.6443 62.2503 45.8662 62.3093 45.0017C62.3629 44.2168 62.4333 42.7914 61.861 42.1591C61.6715 41.9497 61.4032 41.8212 61.1393 41.7295C60.631 41.553 60.0867 41.4449 59.5647 41.3125C58.603 41.0686 57.6409 40.8275 56.6785 40.5864C55.0451 40.1774 53.4093 39.7763 51.7704 39.3903C50.7402 39.1476 49.7078 38.8939 48.6668 38.7019C47.8357 38.5487 47.0006 38.4101 46.1665 38.2747C45.7571 38.2082 45.3438 38.1219 44.9322 38.0739C44.2689 37.9964 43.6029 37.9742 42.9369 37.9345C42.881 37.8452 42.8762 37.6584 42.8632 37.5517C42.7065 36.2695 42.9483 35.2173 43.4859 34.0549C43.6908 33.6119 43.8652 33.2467 44.1683 32.8592C43.7723 32.8163 43.3551 32.7848 42.9698 32.6819C42.5504 32.5698 42.1916 32.3862 41.8175 32.1716C41.6792 32.0398 41.5163 31.9368 41.3772 31.8043C41.0582 31.5007 40.8352 31.1503 40.5859 30.7921L40.5682 30.7536C40.3536 30.3344 39.8826 29.7978 39.4243 29.6619C39.9776 29.4009 40.4715 29.1086 41.0641 28.9258C41.4062 28.8203 41.7673 28.7879 42.105 28.6817L42.1329 28.6726C42.4845 28.6583 42.8192 28.6569 43.1616 28.7523C43.5711 28.8665 43.9098 29.1045 44.2883 29.2873C44.4992 29.3892 44.7283 29.4581 44.9509 29.53C45.5713 29.7301 46.2114 29.8652 46.8399 30.0361C47.3211 30.1669 47.7948 30.3191 48.2715 30.4636C48.4995 30.5328 48.7652 30.5653 48.9821 30.6566C49.0238 30.5057 49.2041 30.4439 49.3359 30.3625L49.5219 30.2491L49.5393 30.2368C49.7634 30.0732 50.0284 29.9978 50.2883 29.9091C50.9598 29.651 51.7682 29.6197 52.4809 29.564C52.5184 29.4896 52.5446 29.4375 52.5496 29.3534L52.4048 29.195ZM52.4048 29.195L52.5496 29.3534C52.5446 29.4375 52.5184 29.4896 52.4809 29.564C51.7682 29.6197 50.9598 29.651 50.2883 29.9091C50.0284 29.9978 49.7634 30.0732 49.5393 30.2368L49.5219 30.2491L49.3359 30.3625C49.2041 30.4439 49.0238 30.5057 48.9821 30.6566C49.0981 30.7464 49.3015 30.7384 49.394 30.8152L49.5623 30.9576L49.5104 30.9755C49.4506 31.0029 49.441 31.0207 49.4033 31.0648L49.3112 31.1413C49.0729 31.0907 48.7044 30.9704 48.4645 31.022C48.3754 31.0952 48.2805 31.166 48.1999 31.2484C47.9779 31.4354 47.7274 31.6306 47.5486 31.8609L47.5802 31.8515C47.6921 31.816 47.7388 31.7838 47.8172 31.6971L47.9753 31.7123L47.985 31.769C47.8998 31.885 47.9117 31.8947 47.9193 32.0315L47.9426 32.0521C48.0956 32.1921 48.1427 32.3323 48.2188 32.5162C48.2671 32.6327 48.4012 32.7721 48.4682 32.8906L48.5008 32.9044C48.6485 32.9904 49.183 33.7675 49.2963 33.9516C49.3311 34.0081 49.3252 34.02 49.387 34.0426C49.6877 34.1528 49.7159 34.4341 49.9042 34.6269C49.9882 34.713 50.1065 34.6765 50.1544 34.773C50.2063 34.8774 50.2465 34.9703 50.3484 35.0314L50.3446 35.0758C50.3403 35.1474 50.3409 35.1165 50.3496 35.1824C50.3667 35.3112 50.3216 35.3777 50.402 35.4869C51.3772 35.3788 52.3537 35.2839 53.3287 35.1737C55.9834 34.8733 58.7659 34.5956 61.0008 36.379C62.6886 37.726 63.5527 39.7834 63.7835 41.8904C63.8488 42.4873 63.8771 43.0682 63.8353 43.6668C63.8188 43.9041 63.7664 44.1405 63.7557 44.3769L63.8928 44.5117L63.9759 44.454C64.3308 44.1574 64.5119 43.6707 64.6898 43.2569C65.2031 42.0634 65.6285 40.7817 65.7153 39.4765C65.7784 38.5274 65.7527 37.5305 65.5724 36.5956C65.2155 34.7459 64.2816 33.0723 63.0399 31.6704C61.8481 30.3249 60.467 29.302 59.0074 28.2775C58.7376 28.088 58.4605 27.7496 58.1184 27.7277C57.9318 27.9228 58.1332 28.0361 58.0741 28.2392C58.0545 28.3064 58.0298 28.3718 58.0111 28.4405C57.8036 28.224 57.5842 27.9943 57.3204 27.8469L57.3381 27.8703C57.5101 28.091 57.7334 28.2744 57.926 28.4774C58.0581 28.6168 58.3012 28.8622 58.3703 29.0382C58.4137 29.1488 58.3944 29.3371 58.3898 29.4553C58.3741 29.8585 58.3335 30.2623 58.3046 30.6648L52.9518 26.9019C53.6653 27.8604 54.1255 28.8894 54.4061 30.049L54.3932 30.0775C53.9979 29.9663 53.5996 29.8299 53.235 29.6383C52.9579 29.4926 52.6955 29.3144 52.4048 29.195ZM47.5486 31.8609C46.8421 32.4348 46.2202 33.2118 45.6146 33.8931C45.3512 34.1895 45.0903 34.5441 44.7642 34.7692L44.7467 34.7818L44.9477 34.8079C45.0506 34.967 45.1315 35.195 45.1869 35.3762C45.3617 35.4653 45.5343 35.5702 45.7293 35.6039C45.8689 35.6329 46.1212 35.6522 46.2227 35.7517L46.1774 35.7817C46.1201 35.8241 46.1071 35.8487 46.0805 35.912L46.112 35.9499C46.1559 36.0054 46.1417 35.9816 46.1628 36.0503L46.2926 36.029L50.402 35.4869C50.3216 35.3777 50.3667 35.3112 50.3496 35.1824C50.3409 35.1165 50.3403 35.1474 50.3446 35.0758L50.3484 35.0314C50.2465 34.9703 50.2063 34.8774 50.1544 34.773C50.1065 34.6765 49.9882 34.713 49.9042 34.6269C49.7159 34.4341 49.6877 34.1528 49.387 34.0426C49.3252 34.02 49.3311 34.0081 49.2963 33.9516C49.183 33.7675 48.6485 32.9904 48.5008 32.9044L48.4682 32.8906C48.4012 32.7721 48.2671 32.6327 48.2188 32.5162C48.1427 32.3323 48.0956 32.1921 47.9426 32.0521L47.9193 32.0315C47.9117 31.8947 47.8998 31.885 47.985 31.769L47.9753 31.7123L47.8172 31.6971C47.7388 31.7838 47.6921 31.816 47.5802 31.8515L47.5486 31.8609ZM43.4868 35.8596L43.4566 36.0736L43.5436 36.0547L43.7536 36.2232C43.8242 36.2106 43.8456 36.192 43.8956 36.1459C43.9786 36.0693 44.0743 36.0526 44.1813 36.0276C44.3067 36.062 44.4381 36.0882 44.5472 36.1616L44.5735 36.2359L44.8764 36.2241L44.8751 36.2542L44.8773 36.2803C45.0889 36.2941 45.405 36.1881 45.6183 36.1473C45.7996 36.1333 45.9841 36.085 46.1628 36.0503C46.1417 35.9816 46.1559 36.0054 46.112 35.9499L46.0805 35.912C46.1071 35.8487 46.1201 35.8241 46.1774 35.7817L46.2227 35.7517C46.1212 35.6522 45.8689 35.6329 45.7293 35.6039C45.5343 35.5702 45.3617 35.4653 45.1869 35.3762C45.1315 35.195 45.0506 34.967 44.9477 34.8079L44.7467 34.7818L44.716 34.7695C44.4931 34.6758 44.3504 34.4665 44.217 34.2728C44.1449 34.2979 44.1495 34.3172 44.1104 34.3794L44.11 34.4328L44.0391 34.4863L44.0387 34.5398L44.0109 34.5648C43.7872 34.7982 43.4984 35.5353 43.4868 35.8596ZM43.4566 36.0736C43.4274 36.2537 43.4053 36.4248 43.4038 36.6082L44.8773 36.2803L44.8751 36.2542L44.8764 36.2241L44.5735 36.2359L44.5472 36.1616C44.4381 36.0882 44.3067 36.062 44.1813 36.0276C44.0743 36.0526 43.9786 36.0693 43.8956 36.1459C43.8456 36.192 43.8242 36.2106 43.7536 36.2232L43.5436 36.0547L43.4566 36.0736Z" fill="#16161D"/>
    <path d="M42.7237 29.0184C42.8737 29.0137 43.0336 29.0024 43.1811 29.0354C43.4277 29.0906 43.6741 29.2398 43.8052 29.4602C43.8923 29.6067 43.9031 29.8083 43.8505 29.9687C43.7497 30.2761 43.5074 30.4347 43.2316 30.5674C43.0363 30.6062 42.881 30.6235 42.6862 30.5577C42.4655 30.483 42.2965 30.3158 42.2003 30.1049C42.1188 29.9261 42.0973 29.6821 42.1678 29.4957C42.266 29.2369 42.4888 29.1269 42.7237 29.0184Z" fill="#FFFEFE"/>
    <path d="M43.4869 35.8593C43.4986 35.535 43.7874 34.7979 44.011 34.5645L44.0389 34.5395L44.0393 34.4859L44.1102 34.4325L44.1106 34.3791C44.1496 34.3168 44.1451 34.2976 44.2172 34.2725C44.3506 34.4662 44.4932 34.6755 44.7161 34.7692L44.7468 34.7815L44.9479 34.8076C45.0508 34.9667 45.1317 35.1947 45.187 35.3759C45.3618 35.465 45.5344 35.5699 45.7295 35.6036C45.8691 35.6326 46.1214 35.6519 46.2229 35.7514L46.1776 35.7814C46.1202 35.8238 46.1073 35.8484 46.0807 35.9117L46.1122 35.9496C46.1561 36.0051 46.1418 35.9813 46.163 36.05C45.9843 36.0847 45.7997 36.133 45.6185 36.147C45.4052 36.1878 45.0891 36.2937 44.8774 36.28L44.8753 36.2539L44.8766 36.2238L44.5736 36.2356L44.5473 36.1613C44.4383 36.0879 44.3068 36.0617 44.1815 36.0273C44.0744 36.0523 43.9788 36.0689 43.8957 36.1456C43.8457 36.1917 43.8244 36.2103 43.7537 36.2229L43.5438 36.0544L43.4568 36.0733L43.4869 35.8593ZM43.4869 35.8593L43.4568 36.0733L43.5438 36.0544L43.7537 36.2229C43.8244 36.2103 43.8457 36.1917 43.8957 36.1456C43.9788 36.0689 44.0744 36.0523 44.1815 36.0273C44.3068 36.0617 44.4383 36.0879 44.5473 36.1613L44.5736 36.2356L44.8766 36.2238L44.8753 36.2539L44.8774 36.28C45.0891 36.2937 45.4052 36.1878 45.6185 36.147L45.6881 36.0621L45.6293 36.0255C45.6089 35.9375 45.636 35.92 45.6725 35.8404L45.6072 35.748C45.4163 35.6994 45.1939 35.7352 45.0149 35.8134C44.8203 35.8982 44.4755 35.9049 44.2649 35.8711C44.1804 35.8576 44.1068 35.8544 44.0211 35.855C43.9446 35.8908 43.9033 35.9108 43.8584 35.9849C43.8162 36.0545 43.82 36.0452 43.7537 36.0804C43.6941 35.9944 43.6186 35.9215 43.5239 35.8749L43.4869 35.8593Z" fill="#FE5100" fill-opacity="0.556863"/>
    <path d="M43.4869 35.8595L43.5239 35.8752C43.6186 35.9217 43.6941 35.9946 43.7537 36.0807C43.82 36.0454 43.8162 36.0547 43.8584 35.9851C43.9033 35.911 43.9446 35.891 44.0211 35.8552C44.1068 35.8546 44.1804 35.8579 44.2649 35.8714C44.4755 35.9051 44.8203 35.8984 45.0149 35.8136C45.1939 35.7354 45.4163 35.6996 45.6072 35.7482L45.6725 35.8407C45.636 35.9202 45.6089 35.9377 45.6293 36.0257L45.6881 36.0623L45.6185 36.1472C45.4052 36.188 45.0891 36.294 44.8774 36.2802L44.8753 36.2541L44.8766 36.224L44.5736 36.2358L44.5473 36.1615C44.4383 36.0881 44.3068 36.0619 44.1815 36.0275C44.0744 36.0525 43.9788 36.0692 43.8957 36.1458C43.8457 36.1919 43.8244 36.2105 43.7537 36.2231L43.5438 36.0546L43.4568 36.0735L43.4869 35.8595Z" fill="#FF6907" fill-opacity="0.301961"/>
    <path d="M47.5488 31.8606L47.5803 31.8511C47.6923 31.8156 47.739 31.7835 47.8174 31.6968L47.9755 31.712L47.9852 31.7686C47.9 31.8846 47.9119 31.8943 47.9195 32.0312L47.9428 32.0517C48.0958 32.1917 48.1428 32.3319 48.219 32.5158C48.2673 32.6324 48.4014 32.7717 48.4684 32.8903L48.501 32.904C48.6486 32.9901 49.1832 33.7671 49.2965 33.9512C49.3313 34.0078 49.3254 34.0197 49.3872 34.0423C49.6878 34.1524 49.7161 34.4337 49.9044 34.6266C49.9884 34.7127 50.1066 34.6761 50.1545 34.7727C50.2064 34.877 50.2466 34.9699 50.3485 35.031L50.3447 35.0754C50.3405 35.1471 50.341 35.1162 50.3498 35.1821C50.3669 35.3108 50.3217 35.3774 50.4021 35.4865L46.2928 36.0287L46.163 36.05C46.1418 35.9813 46.1561 36.005 46.1122 35.9495L46.0807 35.9117C46.1073 35.8484 46.1202 35.8238 46.1776 35.7814L46.2229 35.7513C46.1214 35.6518 45.8691 35.6325 45.7295 35.6035C45.5344 35.5699 45.3618 35.4649 45.187 35.3759C45.1317 35.1946 45.0508 34.9667 44.9479 34.8076L44.7468 34.7814L44.7643 34.7689C45.0904 34.5438 45.3514 34.1891 45.6147 33.8928C46.2203 33.2114 46.8423 32.4345 47.5488 31.8606ZM45.7295 35.6035C45.8691 35.6325 46.1214 35.6518 46.2229 35.7513L46.1776 35.7814C46.1202 35.8238 46.1073 35.8484 46.0807 35.9117L46.1122 35.9495C46.1561 36.005 46.1418 35.9813 46.163 36.05L46.2928 36.0287L46.3221 35.9291C46.3514 35.8558 46.4231 35.83 46.4895 35.7988C46.6037 35.745 46.7186 35.6854 46.837 35.6418C46.9478 35.6011 47.0673 35.5925 47.1631 35.5197L47.1492 35.4063C46.9493 35.3454 46.6981 35.3339 46.5222 35.4515C46.4673 35.4883 46.3784 35.5743 46.3212 35.5952C46.2159 35.6337 45.8624 35.5985 45.7295 35.6035Z" fill="url(#paint0_linear_66_7358)"/>
    <path d="M45.7295 35.6035C45.8624 35.5985 46.2159 35.6337 46.3212 35.5953C46.3784 35.5743 46.4673 35.4883 46.5222 35.4515C46.6982 35.3339 46.9493 35.3454 47.1492 35.4063L47.1631 35.5197C47.0674 35.5925 46.9478 35.6011 46.837 35.6418C46.7186 35.6854 46.6037 35.7451 46.4895 35.7989C46.4231 35.83 46.3514 35.8558 46.3221 35.9291L46.2928 36.0287L46.163 36.05C46.1418 35.9813 46.1561 36.005 46.1122 35.9495L46.0807 35.9117C46.1073 35.8484 46.1203 35.8238 46.1776 35.7814L46.2229 35.7513C46.1214 35.6518 45.8691 35.6325 45.7295 35.6035Z" fill="#FF6907" fill-opacity="0.72549"/>
    <path d="M52.405 29.195C52.6957 29.3144 52.9581 29.4926 53.2352 29.6383C53.5998 29.8299 53.9981 29.9663 54.3934 30.0775L54.4063 30.049C54.1257 28.8894 53.6655 27.8604 52.952 26.9019L58.3048 30.6648C58.3337 30.2623 58.3743 29.8585 58.39 29.4553C58.3947 29.3371 58.414 29.1488 58.3705 29.0382C58.3014 28.8622 58.0584 28.6168 57.9262 28.4774C57.7336 28.2744 57.5103 28.091 57.3383 27.8703L57.3206 27.8469C57.5844 27.9943 57.8038 28.224 58.0113 28.4405C58.03 28.3718 58.0547 28.3064 58.0743 28.2392C58.1334 28.0361 57.932 27.9228 58.1186 27.7277C58.4607 27.7496 58.7378 28.088 59.0076 28.2775C60.4672 29.302 61.8483 30.3249 63.0401 31.6704C64.2818 33.0723 65.2157 34.7459 65.5726 36.5956C65.7529 37.5305 65.7786 38.5274 65.7155 39.4765C65.6287 40.7817 65.2033 42.0634 64.6901 43.2569C64.5121 43.6707 64.331 44.1574 63.9761 44.454L63.893 44.5117L63.7559 44.3769C63.7666 44.1405 63.819 43.9041 63.8355 43.6668C63.8774 43.0682 63.849 42.4873 63.7837 41.8904C63.5529 39.7834 62.6888 37.726 61.001 36.379C58.7661 34.5956 55.9837 34.8733 53.3289 35.1737C52.3539 35.2839 51.3774 35.3788 50.4022 35.4869C50.3218 35.3777 50.3669 35.3112 50.3498 35.1824C50.3411 35.1165 50.3405 35.1474 50.3448 35.0758L50.3486 35.0314C50.2467 34.9703 50.2065 34.8774 50.1546 34.773C50.1067 34.6765 49.9884 34.713 49.9044 34.6269C49.7161 34.4341 49.6879 34.1528 49.3872 34.0426C49.3254 34.02 49.3313 34.0081 49.2966 33.9516C49.1832 33.7675 48.6487 32.9904 48.5011 32.9044L48.4685 32.8906C48.4014 32.7721 48.2673 32.6327 48.219 32.5162C48.1429 32.3323 48.0959 32.1921 47.9428 32.0521L47.9195 32.0315C47.9119 31.8947 47.9 31.885 47.9852 31.769L47.9755 31.7123L47.8174 31.6971C47.739 31.7838 47.6924 31.816 47.5804 31.8515L47.5488 31.8609C47.7276 31.6306 47.9781 31.4354 48.2001 31.2484C48.2807 31.166 48.3756 31.0952 48.4647 31.022C48.7046 30.9704 49.0731 31.0907 49.3114 31.1413L49.4035 31.0648C49.4412 31.0207 49.4508 31.0029 49.5106 30.9755L49.5625 30.9576L49.3942 30.8152C49.3017 30.7384 49.0984 30.7464 48.9823 30.6566C49.024 30.5057 49.2044 30.4439 49.3361 30.3625L49.5221 30.2491L49.5395 30.2368C49.7636 30.0732 50.0286 29.9978 50.2885 29.9091C50.9601 29.651 51.7684 29.6197 52.4811 29.564C52.5186 29.4896 52.5448 29.4375 52.5498 29.3534L52.405 29.195ZM49.3942 30.8152L49.5625 30.9576L49.5106 30.9755C49.4508 31.0029 49.4412 31.0207 49.4035 31.0648L49.3114 31.1413C49.7514 31.2726 50.2289 31.3493 50.6557 31.5148L52.6253 32.0337L51.0044 31.3153L49.3942 30.8152ZM49.3361 30.3625C49.2044 30.4439 49.024 30.5057 48.9823 30.6566C49.0984 30.7464 49.3017 30.7384 49.3942 30.8152L51.0044 31.3153L51.0143 31.2764L50.9095 31.2071C50.8189 31.1723 50.6488 31.1039 50.5552 31.0883C50.4962 31.0785 50.5184 31.0915 50.4662 31.059L50.4372 31.0379L50.3837 31.0466C50.3193 31.0018 50.2907 30.9869 50.2111 30.9768C50.1241 30.9658 50.0709 30.9423 49.9917 30.904C50.0047 30.8337 50.0155 30.7897 49.9934 30.7193C49.9715 30.65 49.8858 30.6318 49.823 30.6013L49.8056 30.539L49.9415 30.4796C49.9892 30.4521 50.0076 30.432 50.0627 30.4175C50.1284 30.4001 50.1862 30.3785 50.2496 30.3539L50.2372 30.3096C50.0286 30.3091 49.8863 30.403 49.6898 30.4304C49.5751 30.4464 49.43 30.4337 49.3361 30.3625ZM48.2001 31.2484L48.3069 31.2726L48.3719 31.2082L48.4321 31.2872L48.3698 31.314L48.3876 31.3661C48.4255 31.3492 48.5531 31.3083 48.5754 31.2825C48.5822 31.2746 48.6295 31.1612 48.6355 31.1554C48.7016 31.0905 49.0117 31.1329 49.0949 31.1635C49.1653 31.1895 49.2226 31.2205 49.2788 31.2707L49.3289 31.2573C49.4308 31.2369 49.4915 31.2682 49.5782 31.3142C49.6558 31.3553 49.7061 31.3512 49.7913 31.354C49.8506 31.3559 49.8869 31.3761 49.9383 31.4029C50.0145 31.4424 50.0905 31.4312 50.1736 31.4278C50.2322 31.459 50.281 31.4948 50.3343 31.534L50.6557 31.5148C50.2289 31.3493 49.7514 31.2726 49.3114 31.1413C49.0731 31.0907 48.7046 30.9704 48.4647 31.022C48.3756 31.0952 48.2807 31.166 48.2001 31.2484ZM49.5221 30.2491L49.5667 30.2726C49.6434 30.2993 49.9067 30.2931 49.9773 30.2539C50.1569 30.1541 50.2302 30.1033 50.2885 29.9091C50.0286 29.9978 49.7636 30.0732 49.5395 30.2368L49.5221 30.2491Z" fill="url(#paint1_linear_66_7358)"/>
    <path d="M49.522 30.2487L49.5394 30.2363C49.7635 30.0728 50.0285 29.9974 50.2884 29.9087C50.23 30.1029 50.1567 30.1536 49.9772 30.2534C49.9066 30.2927 49.6433 30.2989 49.5666 30.2722L49.522 30.2487Z" fill="#FF6907" fill-opacity="0.988235"/>
    <path d="M48.2 31.2483C48.2806 31.1659 48.3754 31.0951 48.4646 31.0219C48.7044 30.9703 49.0729 31.0906 49.3112 31.1412C49.7512 31.2725 50.2287 31.3492 50.6555 31.5147L50.3342 31.5339C50.2808 31.4947 50.2321 31.4589 50.1734 31.4277C50.0903 31.4311 50.0143 31.4423 49.9382 31.4028C49.8867 31.376 49.8504 31.3558 49.7911 31.3539C49.706 31.3511 49.6556 31.3552 49.578 31.3141C49.4913 31.2681 49.4306 31.2368 49.3287 31.2572L49.2786 31.2706C49.2224 31.2203 49.1651 31.1894 49.0948 31.1634C49.0115 31.1328 48.7014 31.0904 48.6353 31.1553C48.6293 31.1611 48.5821 31.2745 48.5752 31.2824C48.5529 31.3082 48.4253 31.3491 48.3874 31.366L48.3696 31.3139L48.432 31.2871L48.3717 31.2081L48.3067 31.2725L48.2 31.2483Z" fill="#FF6907" fill-opacity="0.894118"/>
    <path d="M49.336 30.3625C49.4299 30.4337 49.5749 30.4464 49.6897 30.4304C49.8861 30.403 50.0285 30.3091 50.2371 30.3096L50.2495 30.3539C50.1861 30.3785 50.1283 30.4001 50.0625 30.4175C50.0075 30.432 49.9891 30.4522 49.9413 30.4796L49.8054 30.539L49.8229 30.6013C49.8857 30.6318 49.9714 30.65 49.9932 30.7193C50.0154 30.7897 50.0046 30.8337 49.9915 30.904C50.0708 30.9423 50.1239 30.9658 50.211 30.9768C50.2906 30.9869 50.3192 31.0018 50.3835 31.0466L50.437 31.0379L50.466 31.059C50.5183 31.0915 50.4961 31.0785 50.5551 31.0883C50.6486 31.1039 50.8188 31.1723 50.9094 31.2071L51.0142 31.2764L51.0043 31.3153L49.394 30.8153C49.3016 30.7384 49.0982 30.7464 48.9822 30.6566C49.0239 30.5057 49.2042 30.4439 49.336 30.3625Z" fill="#FF6907" fill-opacity="0.823529"/>
    <path d="M49.3941 30.8149L51.0043 31.315L52.6252 32.0334L50.6556 31.5145C50.2288 31.349 49.7513 31.2723 49.3113 31.141L49.4034 31.0645C49.4411 31.0203 49.4507 31.0026 49.5105 30.9752L49.5624 30.9573L49.3941 30.8149Z" fill="#171216" fill-opacity="0.941176"/>
    <path d="M73.9508 38.814V22.5656H83.3026C85.108 22.5656 86.3116 23.0511 86.9134 24.022C87.5232 24.9929 87.8281 26.1643 87.8281 27.5364C87.8281 28.8844 87.5071 30.0198 86.8652 30.9426C86.2313 31.8573 84.9876 32.3146 83.1341 32.3146H78.055V38.814H73.9508ZM83.6757 38.814L80.2215 31.2435L84.2896 31.075L88.117 38.814H83.6757ZM78.055 29.8112H81.9426C82.6246 29.8112 83.09 29.6186 83.3387 29.2335C83.5955 28.8403 83.7239 28.2907 83.7239 27.5846C83.7239 26.8704 83.5955 26.3208 83.3387 25.9357C83.082 25.5425 82.6166 25.3459 81.9426 25.3459H78.055V29.8112ZM89.131 38.814L94.3064 22.5416H100.096L105.283 38.814H101.07L99.9752 34.8542H94.4508L93.3435 38.814H89.131ZM95.1248 32.1582H99.3132L97.2311 24.9367H97.1949L95.1248 32.1582ZM113.636 38.9464C111.325 38.9464 109.588 38.5412 108.424 37.7307C107.261 36.9123 106.679 35.6405 106.679 33.9154V31.5082H110.759V33.446C110.759 34.3687 110.968 35.0588 111.385 35.5162C111.802 35.9735 112.548 36.2022 113.624 36.2022C114.699 36.2022 115.449 35.9815 115.874 35.5402C116.308 35.0989 116.524 34.4129 116.524 33.4821V22.5656H120.604V34.0719C120.604 35.6927 120.027 36.9123 118.871 37.7307C117.716 38.5412 115.971 38.9464 113.636 38.9464ZM121.289 38.814L126.464 22.5416H132.254L137.441 38.814H133.229L132.133 34.8542H126.609L125.502 38.814H121.289ZM127.283 32.1582H131.471L129.389 24.9367H129.353L127.283 32.1582ZM139.819 38.814L136.882 22.5656H141.287L143.165 35.8291H143.213L145.776 22.5656H151.144L153.72 35.8291H153.756L155.718 22.5656H160.135L157.102 38.814H150.856L148.485 25.3459H148.448L146.065 38.814H139.819ZM159.418 38.814L164.593 22.5416H170.383L175.57 38.814H171.358L170.262 34.8542H164.738L163.631 38.814H159.418ZM165.412 32.1582H169.6L167.518 24.9367H167.482L165.412 32.1582ZM177.101 38.814V22.5656H181.206V36.0457H187.801V38.814H177.101ZM190.233 38.814V22.5656H194.313V38.814H190.233Z" fill="#ECECED"/>
    <path d="M73.9917 51.0259V43.8361H76.2095C77.0003 43.8361 77.5986 44.008 78.0043 44.3519C78.4169 44.6957 78.6232 45.2081 78.6232 45.8889C78.6232 46.5628 78.4169 47.0786 78.0043 47.4362C77.5917 47.7938 76.9934 47.9726 76.2095 47.9726H75.0335V51.0259H73.9917ZM75.0335 47.0442H76.1063C76.5671 47.0442 76.9281 46.9548 77.1894 46.776C77.4507 46.5903 77.5814 46.298 77.5814 45.8992C77.5814 45.5072 77.4542 45.2218 77.1997 45.043C76.9522 44.8642 76.5877 44.7748 76.1063 44.7748H75.0335V47.0442ZM86.1806 51.0259V43.8361H88.3984C88.9623 43.8361 89.4196 43.9186 89.7704 44.0837C90.128 44.2487 90.3893 44.486 90.5543 44.7954C90.7262 45.098 90.8122 45.4591 90.8122 45.8785C90.8122 46.4975 90.6334 46.9823 90.2758 47.333C89.9251 47.6837 89.4162 47.8866 88.7491 47.9416C88.6322 47.9485 88.4981 47.9519 88.3468 47.9519C88.1956 47.9519 88.0546 47.9519 87.9239 47.9519H87.2328V51.0259H86.1806ZM90.1623 51.0259L88.3159 47.8281L89.3887 47.694L91.3692 51.0259H90.1623ZM87.2328 47.0235H88.2953C88.5841 47.0235 88.8351 46.9892 89.0483 46.9204C89.2683 46.8447 89.4437 46.7244 89.5744 46.5594C89.705 46.3943 89.7704 46.1708 89.7704 45.8889C89.7704 45.6069 89.705 45.3869 89.5744 45.2287C89.4437 45.0636 89.2683 44.9467 89.0483 44.878C88.8282 44.8092 88.5772 44.7748 88.2953 44.7748H87.2328V47.0235ZM101.735 51.16C101.068 51.16 100.48 51.0052 99.9715 50.6958C99.4695 50.3863 99.0775 49.9531 98.7956 49.3961C98.5136 48.8322 98.3727 48.1789 98.3727 47.4362C98.3727 46.6866 98.5136 46.0333 98.7956 45.4762C99.0775 44.9123 99.4695 44.4757 99.9715 44.1662C100.48 43.8567 101.068 43.702 101.735 43.702C102.416 43.702 103.011 43.8567 103.52 44.1662C104.029 44.4757 104.424 44.9123 104.706 45.4762C104.988 46.0333 105.129 46.6866 105.129 47.4362C105.129 48.1789 104.985 48.8322 104.696 49.3961C104.414 49.9531 104.019 50.3863 103.51 50.6958C103.001 51.0052 102.409 51.16 101.735 51.16ZM101.735 50.1594C102.217 50.1594 102.629 50.0494 102.973 49.8293C103.317 49.6024 103.585 49.286 103.778 48.8803C103.97 48.4677 104.067 47.9863 104.067 47.4362C104.067 46.8791 103.97 46.3977 103.778 45.992C103.585 45.5794 103.317 45.2631 102.973 45.043C102.629 44.8161 102.217 44.7026 101.735 44.7026C101.268 44.7026 100.859 44.8126 100.508 45.0327C100.164 45.2528 99.8959 45.5691 99.7033 45.9817C99.5177 46.3874 99.4248 46.8723 99.4248 47.4362C99.4248 47.9932 99.5177 48.478 99.7033 48.8906C99.8959 49.2963 100.164 49.6092 100.508 49.8293C100.859 50.0494 101.268 50.1594 101.735 50.1594ZM112.835 51.0259V43.8361H114.857C116.04 43.8361 116.954 44.1559 117.601 44.7954C118.254 45.4281 118.581 46.3255 118.581 47.4877C118.581 48.6293 118.258 49.5061 117.611 50.1181C116.972 50.7233 116.05 51.0259 114.847 51.0259H112.835ZM113.887 50.0562H114.754C115.338 50.0562 115.837 49.9737 116.25 49.8087C116.662 49.6436 116.975 49.3686 117.188 48.9835C117.408 48.5983 117.518 48.086 117.518 47.4465C117.518 46.8138 117.412 46.3049 117.199 45.9198C116.985 45.5278 116.679 45.2459 116.281 45.074C115.882 44.8952 115.404 44.8058 114.847 44.8058H113.887V50.0562ZM128.883 51.16C128.016 51.16 127.353 50.9296 126.892 50.4689C126.438 50.0081 126.211 49.3273 126.211 48.4264V43.8361H127.263V48.3026C127.263 48.7153 127.315 49.0625 127.418 49.3445C127.521 49.6264 127.69 49.8396 127.923 49.984C128.164 50.1284 128.484 50.2007 128.883 50.2007C129.282 50.2007 129.601 50.1284 129.842 49.984C130.09 49.8327 130.265 49.6196 130.368 49.3445C130.471 49.0625 130.523 48.7153 130.523 48.3026V43.8361H131.565V48.3748C131.565 49.2895 131.338 49.984 130.884 50.4585C130.43 50.9262 129.763 51.16 128.883 51.16ZM142.563 51.16C141.896 51.16 141.308 51.0052 140.8 50.6958C140.298 50.3863 139.906 49.9496 139.624 49.3857C139.342 48.8218 139.201 48.1685 139.201 47.4258C139.201 46.6831 139.342 46.0333 139.624 45.4762C139.906 44.9123 140.298 44.4757 140.8 44.1662C141.308 43.8567 141.896 43.702 142.563 43.702C143.299 43.702 143.935 43.8843 144.472 44.2487C145.015 44.6132 145.404 45.1187 145.637 45.7651L144.657 46.1261C144.486 45.6791 144.221 45.3318 143.863 45.0843C143.506 44.8298 143.072 44.7026 142.563 44.7026C142.096 44.7026 141.687 44.8161 141.336 45.043C140.992 45.2631 140.724 45.576 140.531 45.9817C140.346 46.3806 140.253 46.8619 140.253 47.4258C140.253 47.9897 140.346 48.4746 140.531 48.8803C140.724 49.286 140.992 49.6024 141.336 49.8293C141.687 50.0494 142.096 50.1594 142.563 50.1594C143.072 50.1594 143.506 50.0356 143.863 49.788C144.221 49.5336 144.486 49.1829 144.657 48.7359L145.637 49.0866C145.404 49.7262 145.015 50.2316 144.472 50.603C143.935 50.9743 143.299 51.16 142.563 51.16ZM154.882 51.0259V44.7748H152.53V43.8361H158.286V44.7748H155.945V51.0259H154.882ZM165.651 51.0259V43.8361H166.703V51.0259H165.651ZM177.76 51.16C177.093 51.16 176.505 51.0052 175.996 50.6958C175.494 50.3863 175.102 49.9531 174.821 49.3961C174.539 48.8322 174.398 48.1789 174.398 47.4362C174.398 46.6866 174.539 46.0333 174.821 45.4762C175.102 44.9123 175.494 44.4757 175.996 44.1662C176.505 43.8567 177.093 43.702 177.76 43.702C178.441 43.702 179.036 43.8567 179.545 44.1662C180.054 44.4757 180.449 44.9123 180.731 45.4762C181.013 46.0333 181.154 46.6866 181.154 47.4362C181.154 48.1789 181.01 48.8322 180.721 49.3961C180.439 49.9531 180.044 50.3863 179.535 50.6958C179.026 51.0052 178.434 51.16 177.76 51.16ZM177.76 50.1594C178.242 50.1594 178.654 50.0494 178.998 49.8293C179.342 49.6024 179.61 49.286 179.803 48.8803C179.995 48.4677 180.092 47.9863 180.092 47.4362C180.092 46.8791 179.995 46.3977 179.803 45.992C179.61 45.5794 179.342 45.2631 178.998 45.043C178.654 44.8161 178.242 44.7026 177.76 44.7026C177.293 44.7026 176.884 44.8126 176.533 45.0327C176.189 45.2528 175.921 45.5691 175.728 45.9817C175.543 46.3874 175.45 46.8723 175.45 47.4362C175.45 47.9932 175.543 48.478 175.728 48.8906C175.921 49.2963 176.189 49.6092 176.533 49.8293C176.884 50.0494 177.293 50.1594 177.76 50.1594ZM188.86 51.0259V43.8361H189.954L193.533 49.6643H193.285V43.8361H194.327V51.0259H193.213L189.665 45.1874H189.912V51.0259H188.86Z" fill="#ECECED"/>
    <defs>
        <linearGradient id="paint0_linear_66_7358" x1="45.829" y1="36.1538" x2="49.2919" y2="33.3425" gradientUnits="userSpaceOnUse">
            <stop stop-color="#FE5602" stop-opacity="0.709804"/>
            <stop offset="1" stop-color="#FF720D"/>
        </linearGradient>
        <linearGradient id="paint1_linear_66_7358" x1="52.4815" y1="39.5186" x2="63.7699" y2="32.6414" gradientUnits="userSpaceOnUse">
            <stop stop-color="#FF6E0B" stop-opacity="0.968627"/>
            <stop offset="1" stop-color="#FFC026"/>
        </linearGradient>
    </defs>
</svg>
