<svg width="197" height="44" viewBox="0 0 197 44" fill="none" xmlns="http://www.w3.org/2000/svg">
<path d="M33.1093 12.4697C33.011 12.384 32.8525 12.3372 32.7269 12.3072L32.6799 12.2963C32.4683 12.2438 31.9753 12.2993 31.8216 12.1933C31.9103 12.0115 32.385 11.8725 32.5759 11.7618C33.0642 11.4786 33.4831 11.0774 33.9873 10.8182C34.6796 10.4622 35.4593 10.3263 36.2369 10.4124C36.5716 10.4495 37.0163 10.4585 37.3077 10.6304L37.2787 10.6399C36.9288 10.7499 36.5546 10.7835 36.2001 10.8928C35.5861 11.0822 35.0743 11.3851 34.501 11.6556C34.1713 11.8229 33.8432 12.0007 33.4865 12.1038C33.389 12.132 33.1445 12.1565 33.1197 12.2594L33.1093 12.4697Z" fill="#E6971D"/>
<path d="M34.501 11.6556C34.9758 11.7965 35.4639 12.3525 35.6862 12.7868L35.7046 12.8268C35.9629 13.1979 36.194 13.561 36.5245 13.8756C36.6687 14.0129 36.8375 14.1196 36.9808 14.2562L36.9562 14.301C37.0809 14.397 37.2814 14.5233 37.4266 14.5824C37.5819 14.6455 37.7233 14.7237 37.8881 14.7618L38.0083 14.7894C38.1403 14.8386 38.2677 14.8534 38.3963 14.9C38.5141 14.9427 38.6089 14.9197 38.7285 14.9372C38.7958 14.9471 38.8517 14.9914 38.9212 15.003C39.0361 15.022 39.148 14.9997 39.264 15.0295C39.2306 15.1075 39.2486 15.0809 39.1976 15.1433C39.1429 15.2102 39.089 15.2714 39.0424 15.3447L39.0147 15.3897C38.9456 15.4194 38.9668 15.4149 38.9056 15.4272L38.7653 15.4543C38.596 15.3664 38.3296 15.4232 38.1483 15.3627C38.0625 15.3342 38.1391 15.3503 38.0532 15.3332L37.8235 15.2882L37.7311 15.2696L37.6638 15.2447C37.5658 15.2208 37.4665 15.1949 37.3683 15.1709C37.2264 15.1362 37.0167 15.1237 36.8881 15.0601C36.8214 15.0271 36.8165 15.007 36.735 14.9921C36.6566 14.9777 36.6773 14.9884 36.6086 14.9525L36.5677 14.9282L36.5012 14.9557L36.42 14.9337C36.348 14.9174 36.2928 14.9079 36.2249 14.8757L35.8292 14.6785C35.7709 14.6502 35.7223 14.6282 35.6712 14.5873L35.4599 14.4199C35.3 14.344 35.0581 14.0846 34.9428 13.9398C34.9098 13.8984 34.8938 13.8617 34.8506 13.8292L34.7951 13.7921C34.7608 13.6887 34.6594 13.6149 34.5829 13.5388C34.3496 13.3067 34.1196 13.1334 33.8715 12.9239C33.814 12.8753 33.7711 12.8357 33.7031 12.8016L33.6499 12.7762L33.5762 12.7209C33.5274 12.6974 33.5045 12.7056 33.4517 12.6704L33.2373 12.5293C33.2113 12.5352 33.1339 12.483 33.1093 12.4698L33.1197 12.2595C33.1444 12.1566 33.389 12.1321 33.4865 12.1039C33.8431 12.0008 34.1713 11.823 34.501 11.6556ZM34.501 11.6556C34.1713 11.823 33.8431 12.0008 33.4865 12.1039C33.389 12.1321 33.1444 12.1566 33.1197 12.2595L33.1093 12.4698C33.1339 12.483 33.2113 12.5352 33.2373 12.5293C33.3452 12.5267 33.5966 12.5538 33.6868 12.5183C33.7282 12.5022 33.7555 12.4584 33.7976 12.4445C33.8543 12.4258 33.9911 12.4445 34.0562 12.4445L34.1115 12.5553L34.153 12.5641C34.2069 12.578 34.2343 12.5965 34.2778 12.6291C34.385 12.629 34.5216 12.6511 34.6102 12.5922C34.7393 12.5922 34.9484 12.5591 35.0534 12.6291C35.1363 12.6291 35.1263 12.6228 35.2011 12.6661L35.2553 12.6926C35.3255 12.7276 35.2953 12.7092 35.3499 12.7503C35.3923 12.7821 35.4291 12.7959 35.4785 12.8134L35.5521 12.7508C35.6194 12.8107 35.6086 12.8189 35.7046 12.8268L35.6862 12.7868C35.4639 12.3525 34.9758 11.7965 34.501 11.6556Z" fill="#FF970D" fill-opacity="0.0509804"/>
<path d="M34.501 11.6556C34.9758 11.7965 35.4639 12.3525 35.6862 12.7868L35.7046 12.8268C35.6086 12.8189 35.6194 12.8107 35.5521 12.7508L35.4785 12.8134C35.4291 12.7959 35.3923 12.7821 35.3499 12.7503C35.2953 12.7092 35.3255 12.7276 35.2553 12.6926L35.2011 12.6661C35.1263 12.6228 35.1363 12.6291 35.0534 12.6291C34.9484 12.5591 34.7393 12.5922 34.6102 12.5922C34.5216 12.6511 34.385 12.629 34.2778 12.6291C34.2343 12.5965 34.2069 12.578 34.153 12.5641L34.1115 12.5553L34.0562 12.4445C33.9911 12.4445 33.8543 12.4258 33.7976 12.4445C33.7555 12.4584 33.7282 12.5022 33.6868 12.5183C33.5966 12.5538 33.3452 12.5267 33.2373 12.5293C33.2113 12.5352 33.1339 12.483 33.1093 12.4698L33.1197 12.2595C33.1444 12.1566 33.389 12.1321 33.4865 12.1039C33.8431 12.0008 34.1713 11.823 34.501 11.6556Z" fill="#FF960C" fill-opacity="0.0196078"/>
<path d="M5.17657 0.134033C5.75759 0.426755 6.40055 0.567206 7.02499 0.742031C7.83116 0.967777 8.63762 1.19382 9.44261 1.42341C10.976 1.86062 12.5071 2.30846 14.0444 2.73169C14.6002 2.88475 15.1517 3.06716 15.7136 3.19589C14.5362 3.18367 13.4051 3.5545 12.2277 3.54761C11.5667 3.54377 10.933 3.41159 10.2969 3.23972C9.40774 2.99939 8.5671 2.68993 7.78506 2.19441C7.13422 1.78202 6.55233 1.25518 5.96629 0.758676C5.7044 0.536672 5.42123 0.379576 5.17657 0.134033Z" fill="#16161D"/>
<path d="M12.8075 6.23628C13.3884 6.19196 13.9879 6.22633 14.5694 6.24751C16.6956 6.32483 18.7254 6.6145 20.7838 7.16094C21.2215 7.27706 21.6531 7.37083 22.0808 7.5227C20.0293 7.49552 17.9988 7.65173 15.9581 7.83975C13.435 8.07219 10.9559 8.39821 8.4511 8.78262L0.507935 10.2386C1.46843 9.27903 2.77287 8.63675 4.02452 8.13838C6.84782 7.01428 9.79286 6.48508 12.8075 6.23628Z" fill="#16161D"/>
<path d="M22.5215 11.4809C22.7007 11.4434 22.9429 11.4621 23.1291 11.4558C22.5481 11.6918 21.9346 11.8336 21.3315 12.0019C19.6019 12.4842 17.8396 12.8496 16.0873 13.2379C13.9209 13.7182 11.7439 14.2572 9.64223 14.973C8.78514 15.2649 7.95366 15.6048 7.10839 15.9265C6.44849 16.1777 5.77204 16.3855 5.11735 16.6509C3.46881 17.3194 1.92804 18.1664 0.446676 19.147L0 19.4001C0.401822 18.6926 0.882763 18.0525 1.40504 17.4303C2.80457 15.763 4.72309 14.4303 6.75205 13.652C7.99601 13.1748 9.31838 12.8737 10.6235 12.6163C11.7875 12.3867 12.954 12.1687 14.1349 12.0431C15.7995 11.8661 17.4531 11.8313 19.1218 11.7457C20.2604 11.6873 21.3868 11.5823 22.5215 11.4809Z" fill="#16161D"/>
<path d="M24.1825 17.3177L25.0772 17.3136C24.657 17.5137 24.1589 17.6111 23.7095 17.7322C22.8836 17.9546 22.0544 18.1653 21.2293 18.3905C18.6747 19.0878 16.2348 20.2903 14.1482 21.9216C12.3366 23.3379 10.8078 25.0392 9.43132 26.8721C8.90596 27.5717 8.37843 28.2639 7.90743 29.0026C7.34789 29.88 6.89798 30.7958 6.38375 31.6955C6.37793 31.1329 6.49041 30.6051 6.59235 30.0545C6.80658 28.8983 7.08167 27.7666 7.44865 26.6486C7.65785 26.0111 7.9225 25.3872 8.11959 24.7478L8.132 24.7065L8.06985 24.6604C7.72739 24.8249 7.41053 25.0551 7.08955 25.258C6.06985 25.9028 5.1516 26.6152 4.2757 27.445C3.75762 27.9358 3.2784 28.4759 2.78381 28.9907C2.99143 28.5514 3.26368 28.1808 3.54596 27.7882C4.08423 27.0393 4.66465 26.3496 5.27432 25.6587C7.71232 22.8965 10.8673 20.9574 14.2439 19.553C15.6822 18.9548 17.1765 18.4345 18.6947 18.0778C20.4896 17.656 22.3438 17.4298 24.1825 17.3177Z" fill="#16161D"/>
<path d="M23.8559 22.3425L23.8862 22.3646C23.7501 22.5428 23.4329 22.7046 23.2448 22.8395C20.847 24.5599 19.099 27.0777 18.3095 29.923C18.0506 30.8561 17.9312 31.8067 17.7755 32.7592C18.2537 31.8894 18.8612 31.1346 19.5127 30.3907C21.557 28.0565 23.9903 26.2321 26.685 24.7098C27.6514 24.1638 28.5729 23.6543 29.6428 23.328C29.2399 23.6727 28.7589 23.9488 28.3265 24.2574C27.5694 24.7981 26.8329 25.3731 26.1283 25.9806C24.5703 27.3241 23.1402 28.8057 22.0311 30.5452C21.6148 31.198 21.2828 31.9024 20.8598 32.5481C20.4266 33.2097 19.8962 33.8052 19.4455 34.4577C18.9292 35.2758 18.4454 36.247 18.3131 37.2175C18.2587 37.6172 18.2652 38.0443 18.2477 38.4474C17.8204 37.7542 17.4904 36.9749 17.1752 36.2247C16.0381 33.5186 15.3254 30.7293 15.2085 27.7891C14.1844 28.3032 13.2056 28.8886 12.2325 29.4918C11.3376 30.0466 10.4525 30.6072 9.60385 31.2315C9.19914 31.5293 8.7968 31.8386 8.41149 32.1612C8.06391 32.4522 7.75888 32.7539 7.37219 32.995C7.95931 32.2101 8.70244 31.4751 9.40499 30.7917C10.3537 29.8691 11.3241 28.9845 12.3865 28.1926C13.4721 27.3835 14.6415 26.6721 15.8133 25.9959C16.8853 25.3774 17.9695 24.7796 19.0893 24.2512C19.9868 23.8278 20.9078 23.4628 21.8308 23.0995C22.503 22.8351 23.1683 22.5665 23.8559 22.3425Z" fill="#16161D"/>
<path d="M5.17654 0.134148L5.10474 0.0523981L5.13616 0C5.51319 0.0280705 5.88707 0.130306 6.26095 0.187136C6.85673 0.277651 7.47064 0.330051 8.07056 0.386192C9.91977 0.559047 11.8109 0.613118 13.6681 0.670638C15.9629 0.74175 18.2628 0.726288 20.5587 0.764405C23.3719 0.810992 26.1851 0.929971 28.9901 1.14656C31.4489 1.33635 33.8818 1.5819 36.3058 2.05181C38.3894 2.45563 40.4755 3.05309 42.4388 3.86201C43.0594 4.1177 43.671 4.38442 44.2706 4.6864C44.4794 4.79149 44.6856 4.9021 44.8922 5.01123C44.9237 5.02787 45.027 5.09721 45.0589 5.09948C45.1496 5.10598 45.3168 5.04147 45.3972 5.06343C45.5051 5.09288 45.721 5.29686 45.8327 5.37004C46.6948 5.93519 47.5822 6.4313 48.3591 7.11829C48.3039 6.65508 48.1382 6.26406 47.9713 5.83335C48.814 6.33754 49.6165 6.94859 50.3826 7.562C51.2855 8.28484 52.1684 9.01921 53.0449 9.77485L53.0633 9.79918C53.2414 10.0278 53.4728 10.2179 53.6725 10.4283C53.8094 10.5726 54.0612 10.8269 54.1328 11.0093C54.1778 11.1239 54.1578 11.319 54.153 11.4415C54.1368 11.8593 54.0947 12.2778 54.0647 12.6948L48.5181 8.79563C49.2575 9.78883 49.7343 10.8551 50.0251 12.0567L50.0118 12.0863C49.6021 11.971 49.1894 11.8297 48.8116 11.6311C48.5245 11.4802 48.2526 11.2955 47.9514 11.1718C47.8753 11.1784 47.5528 10.9938 47.464 10.9539C46.9516 10.7237 46.4339 10.5046 45.9094 10.3031C43.8152 9.49848 41.6865 8.84822 39.5225 8.25953C37.1811 7.62238 34.8355 7.01576 32.468 6.48232C28.6782 5.62839 24.8569 4.94514 21.0392 4.23185C19.2612 3.89964 17.4901 3.53354 15.7135 3.196C15.1516 3.06727 14.6002 2.88486 14.0444 2.7318C12.5071 2.30858 10.976 1.86073 9.44257 1.42352C8.63758 1.19393 7.83112 0.967892 7.02496 0.742146C6.40051 0.56732 5.75755 0.426869 5.17654 0.134148Z" fill="#B9221D"/>
<path d="M36.4376 24.1772C36.7041 24.1308 36.9928 24.1723 37.2615 24.1915C37.7538 24.2269 38.2449 24.2819 38.7374 24.3135C39.707 24.3756 40.6798 24.4085 41.6512 24.4278C43.6408 24.4674 45.6176 24.3196 47.6006 24.2047C47.1784 24.4865 46.7232 24.7187 46.3081 25.0137C45.0158 25.9317 43.8251 27.0622 42.738 28.2118C41.2638 29.7707 39.9962 31.5354 38.9927 33.4318C37.9692 35.366 37.1794 37.4735 37.0737 39.6774C37.0441 40.2948 37.0638 40.964 37.1566 41.5758C37.2085 41.9183 37.3358 42.2976 37.3454 42.6374C35.7899 41.1907 34.1512 39.8177 32.6918 38.272C32.327 37.8856 31.95 37.5104 31.6194 37.0933C31.369 36.7772 31.1506 36.4288 30.9255 36.0943C29.8716 37.7925 29.7554 40.0355 30.1813 41.9452L30.6952 43.5847C30.2265 43.2026 29.8668 42.6821 29.4977 42.2084C28.6539 41.1254 27.8776 40.0037 27.2364 38.7868C26.637 37.649 26.1665 36.4472 25.7444 35.2342C25.2537 35.6349 24.8122 36.0945 24.4316 36.6009C23.5947 37.7139 23.2251 39.0566 23.3499 40.4407C23.3873 40.8567 23.5018 41.2763 23.5598 41.6925C22.9346 40.7136 22.6 39.4679 22.3414 38.3453C22.1901 37.6884 22.0535 37.0712 22.0062 36.3977C22.1828 36.5756 22.3089 36.9215 22.4156 37.1524C22.571 37.4887 22.7363 37.8257 22.9071 38.1545C23.0181 38.0344 23.0939 37.7209 23.1605 37.5623C23.677 36.3311 24.5225 35.136 25.2966 34.0534C25.6811 33.5156 26.047 32.9663 26.4549 32.4449C28.5954 29.7081 31.2085 27.4061 34.1172 25.514C34.8532 25.0352 35.6225 24.5085 36.4376 24.1772Z" fill="#16161D"/>
<path d="M47.9514 11.1718C48.2526 11.2955 48.5245 11.4802 48.8116 11.6312C49.1894 11.8297 49.6021 11.9711 50.0118 12.0863L50.0251 12.0568C49.7343 10.8551 49.2575 9.78886 48.5181 8.79565L54.0648 12.6948C54.0947 12.2778 54.1368 11.8593 54.153 11.4416C54.1578 11.319 54.1778 11.1239 54.1328 11.0093C54.0612 10.827 53.8094 10.5727 53.6725 10.4283C53.4728 10.2179 53.2414 10.0278 53.0633 9.7992L53.0449 9.77487C53.3183 9.92764 53.5456 10.1657 53.7606 10.39C53.78 10.3189 53.8056 10.2511 53.8259 10.1815C53.8872 9.97097 53.6785 9.85357 53.8718 9.65136C54.2263 9.67412 54.5134 10.0248 54.793 10.221C56.3054 11.2827 57.7365 12.3426 58.9715 13.7369C60.2581 15.1894 61.2258 16.9237 61.5956 18.8403C61.7825 19.8091 61.8091 20.842 61.7437 21.8255C61.6537 23.178 61.213 24.5061 60.6811 25.7428C60.4967 26.1715 60.3091 26.6759 59.9413 26.9832L59.8553 27.043L59.7131 26.9033C59.4636 28.1446 58.3908 29.2158 57.5296 30.0779C57.8598 29.2528 58.1533 28.4465 58.2144 27.5507C58.2699 26.7374 58.3429 25.2604 57.7499 24.6053C57.5535 24.3882 57.2755 24.2551 57.002 24.1601C56.4754 23.9772 55.9114 23.8652 55.3705 23.728C54.3739 23.4753 53.377 23.2254 52.3797 22.9756C50.6872 22.5518 48.9923 22.1361 47.2939 21.7362C46.2265 21.4847 45.1567 21.2218 44.0781 21.0229C43.2168 20.8641 42.3516 20.7205 41.4872 20.5803C41.063 20.5113 40.6347 20.4219 40.2083 20.3721C39.521 20.2919 38.8308 20.2688 38.1407 20.2276C38.0828 20.1352 38.0779 19.9416 38.0644 19.831C37.9019 18.5024 38.1525 17.4121 38.7096 16.2077C38.9219 15.7486 39.1027 15.3702 39.4167 14.9687C39.0063 14.9242 38.5741 14.8916 38.1748 14.7849C37.7402 14.6688 37.3684 14.4785 36.9808 14.2562C36.8375 14.1196 36.6687 14.0128 36.5245 13.8755C36.194 13.5609 35.9629 13.1979 35.7047 12.8268L35.6862 12.7868C35.4639 12.3524 34.9758 11.7964 34.501 11.6556C35.0743 11.3851 35.5861 11.0823 36.2001 10.8929C36.5546 10.7835 36.9287 10.75 37.2787 10.6399L37.3076 10.6305C37.672 10.6157 38.0188 10.6142 38.3735 10.7131C38.7978 10.8314 39.1489 11.078 39.5411 11.2674C39.7596 11.373 39.997 11.4444 40.2277 11.5189C40.8705 11.7263 41.5338 11.8663 42.185 12.0434C42.6836 12.1789 43.1745 12.3366 43.6684 12.4864C43.9047 12.5581 44.18 12.5917 44.4047 12.6863C44.448 12.5299 44.6348 12.4659 44.7713 12.3816L44.9641 12.2641L44.9821 12.2513C45.2144 12.0818 45.489 12.0037 45.7582 11.9118C46.4541 11.6444 47.2917 11.6119 48.0302 11.5542C48.0691 11.477 48.0962 11.4231 48.1014 11.336L47.9514 11.1718ZM47.9514 11.1718L48.1014 11.336C48.0962 11.4231 48.0691 11.477 48.0302 11.5542C47.2917 11.6119 46.4541 11.6444 45.7582 11.9118C45.489 12.0037 45.2144 12.0818 44.9821 12.2513L44.9641 12.2641L44.7713 12.3816C44.6348 12.4659 44.448 12.5299 44.4047 12.6863C44.525 12.7794 44.7357 12.7711 44.8315 12.8507L45.0059 12.9983L44.9522 13.0168C44.8902 13.0451 44.8803 13.0636 44.8412 13.1093L44.7457 13.1885C44.4988 13.1361 44.117 13.0115 43.8685 13.0649C43.7761 13.1408 43.6778 13.2142 43.5943 13.2995C43.3642 13.4933 43.1046 13.6956 42.9194 13.9342L42.9521 13.9245C43.0681 13.8876 43.1165 13.8544 43.1977 13.7645L43.3615 13.7803L43.3716 13.839C43.2833 13.9592 43.2956 13.9692 43.3035 14.111L43.3276 14.1323C43.4862 14.2774 43.535 14.4227 43.6139 14.6132C43.6639 14.734 43.8029 14.8784 43.8723 15.0012L43.9061 15.0155C44.059 15.1046 44.613 15.9098 44.7304 16.1006C44.7664 16.1592 44.7603 16.1715 44.8243 16.1949C45.1359 16.3091 45.1651 16.6005 45.3602 16.8004C45.4473 16.8896 45.5698 16.8517 45.6195 16.9518C45.6732 17.0599 45.7149 17.1561 45.8205 17.2195L45.8166 17.2655C45.8121 17.3397 45.8127 17.3077 45.8218 17.376C45.8395 17.5094 45.7927 17.5784 45.876 17.6915C46.8866 17.5795 47.8984 17.4812 48.9087 17.3669C51.6595 17.0557 54.5427 16.7679 56.8585 18.6159C58.6075 20.0117 59.5029 22.1435 59.742 24.3268C59.8097 24.9453 59.839 25.5473 59.7957 26.1675C59.7785 26.4134 59.7243 26.6584 59.7131 26.9033L59.8553 27.043L59.9413 26.9832C60.3091 26.6759 60.4967 26.1715 60.6811 25.7428C61.213 24.5061 61.6537 23.178 61.7437 21.8255C61.8091 20.842 61.7825 19.8091 61.5956 18.8403C61.2258 16.9237 60.2581 15.1894 58.9715 13.7369C57.7365 12.3426 56.3054 11.2827 54.793 10.221C54.5134 10.0248 54.2263 9.67412 53.8718 9.65136C53.6785 9.85357 53.8872 9.97097 53.8259 10.1815C53.8056 10.2511 53.78 10.3189 53.7606 10.39C53.5456 10.1657 53.3183 9.92764 53.0449 9.77487L53.0633 9.7992C53.2414 10.0278 53.4728 10.2179 53.6725 10.4283C53.8094 10.5727 54.0612 10.827 54.1328 11.0093C54.1778 11.1239 54.1578 11.319 54.153 11.4416C54.1368 11.8593 54.0947 12.2778 54.0648 12.6948L48.5181 8.79565C49.2575 9.78886 49.7343 10.8551 50.0251 12.0568L50.0118 12.0863C49.6021 11.9711 49.1894 11.8297 48.8116 11.6312C48.5245 11.4802 48.2526 11.2955 47.9514 11.1718ZM42.9194 13.9342C42.1873 14.5289 41.5428 15.334 40.9153 16.04C40.6424 16.3471 40.3721 16.7146 40.0341 16.9478L40.016 16.9608L40.2243 16.9879C40.331 17.1528 40.4148 17.389 40.4721 17.5768C40.6532 17.6691 40.8321 17.7778 41.0342 17.8127C41.1789 17.8427 41.4403 17.8627 41.5455 17.9659L41.4985 17.997C41.4391 18.0409 41.4257 18.0664 41.3982 18.132L41.4308 18.1712C41.4763 18.2287 41.4615 18.2041 41.4834 18.2753L41.6179 18.2533L45.876 17.6915C45.7927 17.5784 45.8395 17.5094 45.8218 17.376C45.8127 17.3077 45.8121 17.3397 45.8166 17.2655L45.8205 17.2195C45.7149 17.1561 45.6732 17.0599 45.6195 16.9518C45.5698 16.8517 45.4473 16.8896 45.3602 16.8004C45.1651 16.6005 45.1359 16.3091 44.8243 16.1949C44.7603 16.1715 44.7664 16.1592 44.7304 16.1006C44.613 15.9098 44.059 15.1046 43.9061 15.0155L43.8723 15.0012C43.8029 14.8784 43.6639 14.734 43.6139 14.6132C43.535 14.4227 43.4862 14.2774 43.3276 14.1323L43.3035 14.111C43.2956 13.9692 43.2833 13.9592 43.3716 13.839L43.3615 13.7803L43.1977 13.7645C43.1165 13.8544 43.0681 13.8876 42.9521 13.9245L42.9194 13.9342ZM38.7105 18.0776L38.6792 18.2994L38.7694 18.2798L38.9869 18.4545C39.0601 18.4414 39.0823 18.4221 39.1341 18.3743C39.2202 18.2949 39.3193 18.2777 39.4302 18.2518C39.5601 18.2874 39.6963 18.3145 39.8093 18.3907L39.8365 18.4676L40.1504 18.4554L40.1491 18.4866L40.1513 18.5136C40.3707 18.5279 40.6982 18.418 40.9192 18.3758C41.107 18.3613 41.2983 18.3113 41.4834 18.2753C41.4615 18.2041 41.4763 18.2287 41.4308 18.1712L41.3982 18.132C41.4257 18.0664 41.4391 18.0409 41.4985 17.997L41.5455 17.9659C41.4403 17.8627 41.1789 17.8427 41.0342 17.8127C40.8321 17.7778 40.6532 17.6691 40.4721 17.5768C40.4148 17.389 40.331 17.1528 40.2243 16.9879L40.016 16.9608L39.9842 16.9481C39.7532 16.851 39.6054 16.6341 39.4672 16.4334C39.3924 16.4594 39.3972 16.4794 39.3567 16.5439L39.3563 16.5993L39.2828 16.6546L39.2824 16.7101L39.2536 16.736C39.0218 16.9779 38.7226 17.7417 38.7105 18.0776ZM38.6792 18.2994C38.649 18.4861 38.6261 18.6634 38.6245 18.8534L40.1513 18.5136L40.1491 18.4866L40.1504 18.4554L39.8365 18.4676L39.8093 18.3907C39.6963 18.3145 39.5601 18.2874 39.4302 18.2518C39.3193 18.2777 39.2202 18.2949 39.1341 18.3743C39.0823 18.4221 39.0601 18.4414 38.9869 18.4545L38.7694 18.2798L38.6792 18.2994Z" fill="#16161D"/>
<path d="M37.9198 10.9891C38.0753 10.9842 38.241 10.9725 38.3938 11.0067C38.6494 11.0639 38.9047 11.2184 39.0405 11.4468C39.1308 11.5986 39.1419 11.8075 39.0875 11.9738C38.983 12.2923 38.7319 12.4566 38.4462 12.5941C38.2438 12.6344 38.0828 12.6523 37.881 12.584C37.6523 12.5067 37.4772 12.3334 37.3775 12.1149C37.293 11.9297 37.2708 11.6768 37.3438 11.4837C37.4456 11.2155 37.6764 11.1015 37.9198 10.9891Z" fill="#FFFEFE"/>
<path d="M38.7105 18.0776C38.7226 17.7416 39.0218 16.9778 39.2536 16.7359L39.2824 16.71L39.2828 16.6546L39.3563 16.5992L39.3567 16.5439C39.3972 16.4793 39.3924 16.4594 39.4672 16.4333C39.6054 16.6341 39.7532 16.851 39.9842 16.9481L40.016 16.9608L40.2243 16.9879C40.331 17.1527 40.4148 17.3889 40.4721 17.5768C40.6533 17.669 40.8321 17.7778 41.0342 17.8126C41.1789 17.8427 41.4403 17.8627 41.5455 17.9658L41.4985 17.9969C41.4391 18.0409 41.4257 18.0664 41.3982 18.132L41.4308 18.1712C41.4763 18.2287 41.4615 18.2041 41.4835 18.2753C41.2983 18.3112 41.107 18.3613 40.9192 18.3757C40.6982 18.418 40.3707 18.5278 40.1513 18.5135L40.1491 18.4865L40.1505 18.4553L39.8366 18.4675L39.8093 18.3906C39.6963 18.3145 39.5601 18.2874 39.4302 18.2517C39.3193 18.2776 39.2202 18.2949 39.1341 18.3743C39.0823 18.422 39.0601 18.4413 38.987 18.4544L38.7694 18.2798L38.6793 18.2994L38.7105 18.0776ZM38.7105 18.0776L38.6793 18.2994L38.7694 18.2798L38.987 18.4544C39.0601 18.4413 39.0823 18.422 39.1341 18.3743C39.2202 18.2949 39.3193 18.2776 39.4302 18.2517C39.5601 18.2874 39.6963 18.3145 39.8093 18.3906L39.8366 18.4675L40.1505 18.4553L40.1491 18.4865L40.1513 18.5135C40.3707 18.5278 40.6982 18.418 40.9192 18.3757L40.9914 18.2878L40.9304 18.2499C40.9092 18.1587 40.9374 18.1405 40.9752 18.0581L40.9076 17.9623C40.7097 17.9119 40.4792 17.9491 40.2938 18.03C40.0921 18.118 39.7348 18.1249 39.5166 18.0899C39.4291 18.0759 39.3529 18.0726 39.264 18.0732C39.1847 18.1103 39.142 18.131 39.0954 18.2078C39.0517 18.2799 39.0556 18.2702 38.987 18.3068C38.9252 18.2176 38.8469 18.1421 38.7488 18.0938L38.7105 18.0776Z" fill="#FE5100" fill-opacity="0.556863"/>
<path d="M38.7105 18.0777L38.7488 18.0939C38.8469 18.1422 38.9252 18.2177 38.987 18.3069C39.0556 18.2703 39.0517 18.28 39.0954 18.2079C39.142 18.1311 39.1847 18.1104 39.264 18.0732C39.3529 18.0727 39.4291 18.076 39.5166 18.09C39.7348 18.125 40.0921 18.1181 40.2938 18.0301C40.4792 17.9491 40.7097 17.912 40.9076 17.9623L40.9752 18.0582C40.9374 18.1406 40.9092 18.1587 40.9304 18.2499L40.9914 18.2879L40.9192 18.3758C40.6982 18.4181 40.3707 18.5279 40.1513 18.5136L40.1491 18.4866L40.1505 18.4554L39.8366 18.4676L39.8093 18.3907C39.6963 18.3146 39.5601 18.2875 39.4302 18.2518C39.3193 18.2777 39.2202 18.295 39.1341 18.3743C39.0823 18.4221 39.0601 18.4414 38.987 18.4545L38.7694 18.2799L38.6793 18.2995L38.7105 18.0777Z" fill="#FF6907" fill-opacity="0.301961"/>
<path d="M42.9194 13.9342L42.9521 13.9245C43.0682 13.8876 43.1165 13.8544 43.1978 13.7645L43.3616 13.7803L43.3716 13.839C43.2834 13.9591 43.2957 13.9692 43.3036 14.111L43.3277 14.1323C43.4863 14.2774 43.535 14.4227 43.6139 14.6132C43.6639 14.734 43.8029 14.8784 43.8724 15.0012L43.9061 15.0155C44.0591 15.1046 44.613 15.9098 44.7304 16.1006C44.7665 16.1592 44.7604 16.1715 44.8244 16.1949C45.1359 16.3091 45.1652 16.6005 45.3603 16.8004C45.4474 16.8896 45.5699 16.8517 45.6195 16.9518C45.6733 17.0599 45.715 17.1561 45.8205 17.2195L45.8166 17.2655C45.8122 17.3397 45.8128 17.3077 45.8218 17.376C45.8396 17.5094 45.7928 17.5784 45.8761 17.6914L41.6179 18.2533L41.4835 18.2753C41.4615 18.2041 41.4763 18.2287 41.4308 18.1712L41.3982 18.132C41.4258 18.0664 41.4392 18.0409 41.4986 17.997L41.5456 17.9658C41.4404 17.8627 41.179 17.8427 41.0343 17.8127C40.8322 17.7778 40.6533 17.6691 40.4722 17.5768C40.4148 17.389 40.331 17.1528 40.2244 16.9879L40.0161 16.9608L40.0342 16.9478C40.3721 16.7146 40.6425 16.3471 40.9154 16.04C41.5429 15.334 42.1873 14.5289 42.9194 13.9342ZM41.0343 17.8127C41.179 17.8427 41.4404 17.8627 41.5456 17.9658L41.4986 17.997C41.4392 18.0409 41.4258 18.0664 41.3982 18.132L41.4308 18.1712C41.4763 18.2287 41.4615 18.2041 41.4835 18.2753L41.6179 18.2533L41.6484 18.15C41.6787 18.0741 41.753 18.0474 41.8218 18.0151C41.9401 17.9593 42.0592 17.8975 42.1819 17.8524C42.2967 17.8102 42.4206 17.8013 42.5197 17.7258L42.5054 17.6083C42.2982 17.5452 42.038 17.5333 41.8557 17.6552C41.7988 17.6933 41.7067 17.7825 41.6474 17.8041C41.5383 17.844 41.172 17.8075 41.0343 17.8127Z" fill="url(#paint0_linear_173_333)"/>
<path d="M41.0342 17.8127C41.1719 17.8075 41.5382 17.844 41.6474 17.8042C41.7067 17.7825 41.7987 17.6934 41.8557 17.6552C42.038 17.5333 42.2982 17.5452 42.5053 17.6084L42.5197 17.7259C42.4205 17.8013 42.2966 17.8103 42.1819 17.8524C42.0592 17.8975 41.9401 17.9594 41.8218 18.0151C41.7529 18.0474 41.6787 18.0741 41.6483 18.1501L41.6179 18.2533L41.4835 18.2754C41.4615 18.2041 41.4763 18.2288 41.4308 18.1712L41.3982 18.132C41.4258 18.0664 41.4391 18.0409 41.4985 17.997L41.5455 17.9659C41.4403 17.8628 41.1789 17.8428 41.0342 17.8127Z" fill="#FF6907" fill-opacity="0.72549"/>
<path d="M47.9514 11.1718C48.2526 11.2955 48.5245 11.4802 48.8116 11.6312C49.1894 11.8297 49.6021 11.9711 50.0118 12.0863L50.0251 12.0568C49.7343 10.8551 49.2575 9.78886 48.5181 8.79565L54.0647 12.6948C54.0947 12.2778 54.1368 11.8593 54.153 11.4416C54.1578 11.319 54.1778 11.1239 54.1328 11.0093C54.0612 10.827 53.8094 10.5727 53.6725 10.4283C53.4728 10.2179 53.2414 10.0278 53.0633 9.7992L53.0449 9.77487C53.3183 9.92764 53.5456 10.1657 53.7606 10.39C53.78 10.3189 53.8056 10.2511 53.8259 10.1815C53.8872 9.97097 53.6785 9.85357 53.8718 9.65136C54.2263 9.67412 54.5134 10.0248 54.793 10.221C56.3054 11.2827 57.7365 12.3426 58.9715 13.7369C60.2581 15.1894 61.2258 16.9237 61.5956 18.8403C61.7825 19.8091 61.8091 20.8421 61.7437 21.8255C61.6537 23.178 61.213 24.5061 60.6811 25.7428C60.4967 26.1715 60.3091 26.6759 59.9413 26.9832L59.8553 27.043L59.7131 26.9033C59.7243 26.6584 59.7785 26.4134 59.7957 26.1675C59.839 25.5473 59.8097 24.9453 59.742 24.3268C59.5028 22.1435 58.6074 20.0117 56.8585 18.6159C54.5427 16.7679 51.6595 17.0557 48.9087 17.3669C47.8984 17.4812 46.8866 17.5795 45.876 17.6915C45.7927 17.5784 45.8395 17.5094 45.8218 17.376C45.8127 17.3077 45.8121 17.3397 45.8165 17.2655L45.8205 17.2195C45.7149 17.1561 45.6732 17.0599 45.6195 16.9518C45.5698 16.8517 45.4473 16.8896 45.3602 16.8004C45.1651 16.6005 45.1359 16.3091 44.8243 16.1949C44.7603 16.1715 44.7664 16.1592 44.7304 16.1006C44.613 15.9098 44.059 15.1046 43.9061 15.0155L43.8723 15.0012C43.8029 14.8784 43.6639 14.734 43.6138 14.6132C43.535 14.4227 43.4862 14.2774 43.3276 14.1323L43.3035 14.111C43.2956 13.9692 43.2833 13.9592 43.3716 13.839L43.3615 13.7803L43.1977 13.7645C43.1165 13.8544 43.0681 13.8876 42.9521 13.9245L42.9194 13.9342C43.1046 13.6956 43.3642 13.4933 43.5942 13.2995C43.6778 13.2142 43.7761 13.1408 43.8685 13.0649C44.1169 13.0115 44.4988 13.1361 44.7457 13.1885L44.8412 13.1093C44.8803 13.0636 44.8902 13.0451 44.9522 13.0168L45.0059 12.9983L44.8315 12.8507C44.7357 12.7711 44.525 12.7794 44.4047 12.6863C44.448 12.5299 44.6348 12.4659 44.7713 12.3816L44.9641 12.2641L44.9821 12.2513C45.2144 12.0818 45.489 12.0037 45.7582 11.9118C46.4541 11.6444 47.2917 11.6119 48.0302 11.5542C48.0691 11.477 48.0962 11.4231 48.1014 11.336L47.9514 11.1718ZM44.8315 12.8507L45.0059 12.9983L44.9522 13.0168C44.8902 13.0451 44.8803 13.0636 44.8412 13.1093L44.7457 13.1885C45.2017 13.3247 45.6965 13.4041 46.1387 13.5756L48.1796 14.1133L46.5001 13.3689L44.8315 12.8507ZM44.7713 12.3816C44.6348 12.4659 44.448 12.5299 44.4047 12.6863C44.525 12.7794 44.7357 12.7711 44.8315 12.8507L46.5001 13.3689L46.5103 13.3286L46.4017 13.2568C46.3078 13.2207 46.1315 13.1498 46.0346 13.1337C45.9734 13.1235 45.9965 13.1369 45.9423 13.1033L45.9123 13.0814L45.8568 13.0904C45.7902 13.0441 45.7605 13.0286 45.6781 13.0182C45.5878 13.0067 45.5328 12.9824 45.4506 12.9427C45.4641 12.8698 45.4754 12.8242 45.4524 12.7513C45.4298 12.6795 45.3409 12.6606 45.2759 12.629L45.2578 12.5645L45.3986 12.5029C45.4481 12.4745 45.4672 12.4536 45.5242 12.4385C45.5924 12.4205 45.6523 12.3981 45.718 12.3726L45.7051 12.3267C45.489 12.3262 45.3414 12.4235 45.1378 12.4519C45.019 12.4685 44.8686 12.4554 44.7713 12.3816ZM43.5942 13.2995L43.7049 13.3247L43.7722 13.2579L43.8347 13.3397L43.7701 13.3675L43.7885 13.4215C43.8278 13.404 43.96 13.3616 43.9831 13.3349C43.9902 13.3267 44.0391 13.2092 44.0453 13.2032C44.1139 13.1359 44.4352 13.1799 44.5215 13.2116C44.5943 13.2385 44.6537 13.2706 44.7119 13.3227L44.7639 13.3088C44.8694 13.2876 44.9324 13.32 45.0222 13.3677C45.1026 13.4104 45.1548 13.4061 45.243 13.409C45.3045 13.4109 45.3421 13.4319 45.3954 13.4596C45.4743 13.5006 45.5531 13.489 45.6392 13.4854C45.6999 13.5178 45.7505 13.5548 45.8057 13.5955L46.1387 13.5756C45.6965 13.4041 45.2017 13.3247 44.7457 13.1885C44.4988 13.1361 44.1169 13.0115 43.8685 13.0649C43.7761 13.1408 43.6778 13.2142 43.5942 13.2995ZM44.9641 12.2641L45.0103 12.2884C45.0898 12.3161 45.3626 12.3097 45.4358 12.269C45.6218 12.1656 45.6978 12.113 45.7582 11.9118C45.489 12.0037 45.2144 12.0818 44.9821 12.2513L44.9641 12.2641Z" fill="url(#paint1_linear_173_333)"/>
<path d="M44.9641 12.2641L44.9821 12.2513C45.2144 12.0817 45.489 12.0036 45.7583 11.9117C45.6978 12.113 45.6218 12.1656 45.4358 12.269C45.3626 12.3097 45.0898 12.3161 45.0103 12.2884L44.9641 12.2641Z" fill="#FF6907" fill-opacity="0.988235"/>
<path d="M43.5943 13.2994C43.6778 13.214 43.7761 13.1407 43.8685 13.0648C44.117 13.0113 44.4989 13.136 44.7458 13.1884C45.2017 13.3245 45.6965 13.404 46.1388 13.5755L45.8058 13.5954C45.7505 13.5547 45.7 13.5177 45.6392 13.4853C45.5531 13.4888 45.4743 13.5005 45.3954 13.4595C45.3422 13.4318 45.3045 13.4108 45.2431 13.4089C45.1548 13.406 45.1026 13.4102 45.0223 13.3676C44.9324 13.3199 44.8695 13.2875 44.7639 13.3087L44.712 13.3226C44.6538 13.2705 44.5944 13.2384 44.5215 13.2115C44.4352 13.1798 44.114 13.1358 44.0454 13.2031C44.0392 13.2091 43.9902 13.3266 43.9831 13.3348C43.96 13.3615 43.8278 13.4039 43.7885 13.4214L43.7701 13.3674L43.8347 13.3396L43.7723 13.2578L43.7049 13.3245L43.5943 13.2994Z" fill="#FF6907" fill-opacity="0.894118"/>
<path d="M44.7714 12.3815C44.8687 12.4553 45.019 12.4684 45.1379 12.4518C45.3415 12.4235 45.489 12.3262 45.7051 12.3267L45.718 12.3726C45.6523 12.3981 45.5924 12.4204 45.5243 12.4385C45.4672 12.4535 45.4481 12.4744 45.3987 12.5029L45.2578 12.5644L45.276 12.6289C45.341 12.6606 45.4298 12.6795 45.4525 12.7513C45.4754 12.8242 45.4642 12.8698 45.4507 12.9426C45.5328 12.9823 45.5879 13.0067 45.6781 13.0181C45.7605 13.0285 45.7902 13.044 45.8569 13.0904L45.9123 13.0813L45.9424 13.1032C45.9965 13.1369 45.9735 13.1235 46.0347 13.1336C46.1316 13.1498 46.3079 13.2206 46.4017 13.2567L46.5104 13.3285L46.5001 13.3688L44.8316 12.8506C44.7357 12.7711 44.525 12.7793 44.4048 12.6863C44.448 12.5299 44.6349 12.4658 44.7714 12.3815Z" fill="#FF6907" fill-opacity="0.823529"/>
<path d="M44.8316 12.8507L46.5001 13.3689L48.1797 14.1133L46.1388 13.5756C45.6965 13.4041 45.2017 13.3247 44.7458 13.1885L44.8412 13.1093C44.8803 13.0636 44.8903 13.0451 44.9522 13.0168L45.006 12.9982L44.8316 12.8507Z" fill="#171216" fill-opacity="0.941176"/>
<path d="M70.2069 20.7615V3.92496H79.8972C81.768 3.92496 83.0151 4.42798 83.6387 5.43401C84.2706 6.44004 84.5865 7.65394 84.5865 9.07569C84.5865 10.4725 84.254 11.649 83.5888 12.6051C82.932 13.553 81.6433 14.0269 79.7226 14.0269H74.4597V20.7615H70.2069ZM80.2839 20.7615L76.7045 12.9169L80.9199 12.7423L84.8858 20.7615H80.2839ZM74.4597 11.4328H78.488C79.1947 11.4328 79.6769 11.2333 79.9347 10.8342C80.2007 10.4268 80.3337 9.85723 80.3337 9.12557C80.3337 8.3856 80.2007 7.81606 79.9347 7.41698C79.6686 7.00957 79.1864 6.80587 78.488 6.80587H74.4597V11.4328ZM85.9366 20.7615L91.2993 3.90001H97.2981L102.673 20.7615H98.3083L97.1734 16.6584H91.449L90.3016 20.7615H85.9366ZM92.1474 13.8647H96.4875L94.3299 6.38184H94.2925L92.1474 13.8647ZM111.328 20.8987C108.934 20.8987 107.134 20.4788 105.928 19.639C104.723 18.791 104.12 17.4732 104.12 15.6856V13.1913H108.348V15.1992C108.348 16.1553 108.564 16.8704 108.996 17.3443C109.429 17.8182 110.202 18.0552 111.316 18.0552C112.43 18.0552 113.207 17.8265 113.648 17.3692C114.097 16.9119 114.321 16.2011 114.321 15.2366V3.92496H118.549V15.8477C118.549 17.5272 117.951 18.791 116.753 19.639C115.556 20.4788 113.748 20.8987 111.328 20.8987ZM119.259 20.7615L124.622 3.90001H130.62L135.996 20.7615H131.631L130.496 16.6584H124.771L123.624 20.7615H119.259ZM125.47 13.8647H129.81L127.652 6.38184H127.615L125.47 13.8647ZM138.459 20.7615L135.416 3.92496H139.981L141.926 17.6685H141.976L144.633 3.92496H150.195L152.864 17.6685H152.901L154.934 3.92496H159.511L156.368 20.7615H149.896L147.439 6.80587H147.401L144.932 20.7615H138.459ZM158.768 20.7615L164.131 3.90001H170.13L175.505 20.7615H171.14L170.005 16.6584H164.281L163.133 20.7615H158.768ZM164.979 13.8647H169.319L167.161 6.38184H167.124L164.979 13.8647ZM177.091 20.7615V3.92496H181.344V17.893H188.179V20.7615H177.091ZM190.698 20.7615V3.92496H194.926V20.7615H190.698Z" fill="#393939"/>
<path d="M70.3197 33.7056V26.2555H72.6178C73.4373 26.2555 74.0572 26.4337 74.4776 26.79C74.9052 27.1463 75.119 27.6771 75.119 28.3826C75.119 29.0809 74.9052 29.6154 74.4776 29.9859C74.0501 30.3564 73.4301 30.5417 72.6178 30.5417H71.3993V33.7056H70.3197ZM71.3993 29.5797H72.5109C72.9883 29.5797 73.3624 29.4871 73.6332 29.3018C73.904 29.1094 74.0394 28.8066 74.0394 28.3933C74.0394 27.9871 73.9076 27.6914 73.6439 27.5061C73.3874 27.3208 73.0097 27.2282 72.5109 27.2282H71.3993V29.5797ZM82.9499 33.7056V26.2555H85.248C85.8323 26.2555 86.3062 26.341 86.6696 26.5121C87.0402 26.6831 87.3109 26.9289 87.482 27.2496C87.6601 27.5631 87.7492 27.9372 87.7492 28.3719C87.7492 29.0132 87.5639 29.5156 87.1934 29.879C86.8299 30.2424 86.3026 30.4526 85.6114 30.5096C85.4903 30.5168 85.3513 30.5203 85.1946 30.5203C85.0378 30.5203 84.8917 30.5203 84.7563 30.5203H84.0402V33.7056H82.9499ZM87.0758 33.7056L85.1625 30.3921L86.2741 30.2531L88.3264 33.7056H87.0758ZM84.0402 29.5583H85.1411C85.4404 29.5583 85.7005 29.5227 85.9214 29.4515C86.1494 29.3731 86.3311 29.2484 86.4665 29.0774C86.6019 28.9063 86.6696 28.6747 86.6696 28.3826C86.6696 28.0904 86.6019 27.8624 86.4665 27.6985C86.3311 27.5275 86.1494 27.4064 85.9214 27.3351C85.6934 27.2638 85.4333 27.2282 85.1411 27.2282H84.0402V29.5583ZM99.0679 33.8445C98.3767 33.8445 97.7674 33.6842 97.2401 33.3635C96.7199 33.0429 96.3137 32.5939 96.0216 32.0167C95.7294 31.4324 95.5833 30.7555 95.5833 29.9859C95.5833 29.2092 95.7294 28.5322 96.0216 27.955C96.3137 27.3707 96.7199 26.9182 97.2401 26.5976C97.7674 26.2769 98.3767 26.1166 99.0679 26.1166C99.7733 26.1166 100.39 26.2769 100.917 26.5976C101.444 26.9182 101.854 27.3707 102.146 27.955C102.438 28.5322 102.584 29.2092 102.584 29.9859C102.584 30.7555 102.435 31.4324 102.136 32.0167C101.843 32.5939 101.434 33.0429 100.906 33.3635C100.379 33.6842 99.7662 33.8445 99.0679 33.8445ZM99.0679 32.8077C99.5667 32.8077 99.9942 32.6937 100.35 32.4657C100.707 32.2305 100.985 31.9027 101.184 31.4823C101.384 31.0548 101.484 30.556 101.484 29.9859C101.484 29.4087 101.384 28.9099 101.184 28.4895C100.985 28.0619 100.707 27.7341 100.35 27.5061C99.9942 27.271 99.5667 27.1534 99.0679 27.1534C98.5833 27.1534 98.1593 27.2674 97.7959 27.4954C97.4396 27.7234 97.1617 28.0512 96.9622 28.4788C96.7698 28.8992 96.6736 29.4016 96.6736 29.9859C96.6736 30.5631 96.7698 31.0655 96.9622 31.493C97.1617 31.9134 97.4396 32.2376 97.7959 32.4657C98.1593 32.6937 98.5833 32.8077 99.0679 32.8077ZM110.569 33.7056V26.2555H112.664C113.89 26.2555 114.838 26.5869 115.508 27.2496C116.185 27.9052 116.523 28.8351 116.523 30.0393C116.523 31.2222 116.188 32.1308 115.518 32.765C114.856 33.392 113.901 33.7056 112.654 33.7056H110.569ZM111.66 32.7008H112.558C113.163 32.7008 113.68 32.6153 114.107 32.4443C114.535 32.2733 114.859 31.9882 115.08 31.5892C115.308 31.1902 115.422 30.6593 115.422 29.9966C115.422 29.341 115.312 28.8137 115.091 28.4147C114.87 28.0085 114.553 27.7163 114.139 27.5382C113.726 27.3529 113.231 27.2603 112.654 27.2603H111.66V32.7008ZM127.198 33.8445C126.3 33.8445 125.612 33.6058 125.135 33.1284C124.665 32.6509 124.43 31.9455 124.43 31.012V26.2555H125.52V30.8837C125.52 31.3113 125.573 31.6711 125.68 31.9633C125.787 32.2555 125.962 32.4764 126.204 32.626C126.453 32.7756 126.785 32.8505 127.198 32.8505C127.611 32.8505 127.943 32.7756 128.192 32.626C128.449 32.4692 128.63 32.2483 128.737 31.9633C128.844 31.6711 128.897 31.3113 128.897 30.8837V26.2555H129.977V30.9586C129.977 31.9063 129.742 32.626 129.272 33.1177C128.801 33.6022 128.11 33.8445 127.198 33.8445ZM141.374 33.8445C140.683 33.8445 140.073 33.6842 139.546 33.3635C139.026 33.0429 138.62 32.5904 138.328 32.0061C138.035 31.4217 137.889 30.7448 137.889 29.9752C137.889 29.2056 138.035 28.5322 138.328 27.955C138.62 27.3707 139.026 26.9182 139.546 26.5976C140.073 26.2769 140.683 26.1166 141.374 26.1166C142.136 26.1166 142.795 26.3054 143.351 26.6831C143.914 27.0607 144.317 27.5845 144.559 28.2543L143.544 28.6284C143.366 28.1652 143.091 27.8054 142.721 27.5489C142.35 27.2852 141.901 27.1534 141.374 27.1534C140.889 27.1534 140.465 27.271 140.102 27.5061C139.746 27.7341 139.468 28.0584 139.268 28.4788C139.076 28.8921 138.98 29.3909 138.98 29.9752C138.98 30.5595 139.076 31.0619 139.268 31.4823C139.468 31.9027 139.746 32.2305 140.102 32.4657C140.465 32.6937 140.889 32.8077 141.374 32.8077C141.901 32.8077 142.35 32.6794 142.721 32.4229C143.091 32.1593 143.366 31.7958 143.544 31.3327L144.559 31.6961C144.317 32.3588 143.914 32.8825 143.351 33.2673C142.795 33.6521 142.136 33.8445 141.374 33.8445ZM154.139 33.7056V27.2282H151.702V26.2555H157.666V27.2282H155.239V33.7056H154.139ZM165.297 33.7056V26.2555H166.387V33.7056H165.297ZM177.845 33.8445C177.154 33.8445 176.544 33.6842 176.017 33.3635C175.497 33.0429 175.091 32.5939 174.799 32.0167C174.506 31.4324 174.36 30.7555 174.36 29.9859C174.36 29.2092 174.506 28.5322 174.799 27.955C175.091 27.3707 175.497 26.9182 176.017 26.5976C176.544 26.2769 177.154 26.1166 177.845 26.1166C178.55 26.1166 179.167 26.2769 179.694 26.5976C180.221 26.9182 180.631 27.3707 180.923 27.955C181.215 28.5322 181.362 29.2092 181.362 29.9859C181.362 30.7555 181.212 31.4324 180.913 32.0167C180.62 32.5939 180.211 33.0429 179.683 33.3635C179.156 33.6842 178.543 33.8445 177.845 33.8445ZM177.845 32.8077C178.344 32.8077 178.771 32.6937 179.128 32.4657C179.484 32.2305 179.762 31.9027 179.961 31.4823C180.161 31.0548 180.261 30.556 180.261 29.9859C180.261 29.4087 180.161 28.9099 179.961 28.4895C179.762 28.0619 179.484 27.7341 179.128 27.5061C178.771 27.271 178.344 27.1534 177.845 27.1534C177.36 27.1534 176.936 27.2674 176.573 27.4954C176.217 27.7234 175.939 28.0512 175.739 28.4788C175.547 28.8992 175.451 29.4016 175.451 29.9859C175.451 30.5631 175.547 31.0655 175.739 31.493C175.939 31.9134 176.217 32.2376 176.573 32.4657C176.936 32.6937 177.36 32.8077 177.845 32.8077ZM189.346 33.7056V26.2555H190.479L194.188 32.2947H193.932V26.2555H195.012V33.7056H193.857L190.18 27.6558H190.437V33.7056H189.346Z" fill="#393939"/>
<defs>
<linearGradient id="paint0_linear_173_333" x1="41.1374" y1="18.3829" x2="44.7257" y2="15.4698" gradientUnits="userSpaceOnUse">
<stop stop-color="#FE5602" stop-opacity="0.709804"/>
<stop offset="1" stop-color="#FF720D"/>
</linearGradient>
<linearGradient id="paint1_linear_173_333" x1="48.0306" y1="21.8691" x2="59.7277" y2="14.743" gradientUnits="userSpaceOnUse">
<stop stop-color="#FF6E0B" stop-opacity="0.968627"/>
<stop offset="1" stop-color="#FFC026"/>
</linearGradient>
</defs>
</svg>
